<?xml version="1.0" standalone="no"?>
<!DOCTYPE svg PUBLIC "-//W3C//DTD SVG 20010904//EN"
 "http://www.w3.org/TR/2001/REC-SVG-20010904/DTD/svg10.dtd">
<svg version="1.0" xmlns="http://www.w3.org/2000/svg"
 width="2000.000000pt" height="1200.000000pt" viewBox="0 0 2000.000000 1200.000000"
 preserveAspectRatio="xMidYMid meet">

<g transform="translate(0.000000,1200.000000) scale(0.100000,-0.100000)"
fill="#326295" stroke="none">
<path d="M400 6000 l0 -3150 995 0 995 0 2 1133 3 1132 701 3 701 2 246 683
c136 376 247 686 247 690 0 4 -427 7 -950 7 l-950 0 0 635 0 635 1183 0 1184
0 246 683 c136 376 247 687 247 690 0 4 -1091 7 -2425 7 l-2425 0 0 -3150z"/>
<path d="M5840 6010 l0 -3140 995 0 995 0 0 3140 0 3140 -995 0 -995 0 0
-3140z"/>
<path d="M9160 6000 l0 -3150 995 0 995 0 0 1135 0 1135 702 2 702 3 247 685
247 685 -949 3 -949 2 0 635 0 635 1182 2 1182 3 211 585 c116 322 227 631
248 688 l36 102 -2424 0 -2425 0 0 -3150z"/>
<path d="M15272 9123 c-8 -26 -2259 -6232 -2269 -6261 -4 -10 190 -12 963 -10
l967 3 114 375 c62 206 118 392 123 413 l11 37 1117 -2 1116 -3 125 -412 124
-413 967 0 967 0 -224 618 c-123 339 -637 1755 -1141 3147 l-918 2530 -1016 3
-1016 2 -10 -27z m1403 -2923 c203 -690 370 -1261 373 -1267 3 -10 -150 -13
-747 -13 -413 0 -751 3 -751 8 -1 24 746 2549 751 2539 4 -7 172 -577 374
-1267z"/>
</g>
</svg>
