<?xml version="1.0" encoding="UTF-8" standalone="no"?>
<svg
   xmlns:dc="http://purl.org/dc/elements/1.1/"
   xmlns:cc="http://creativecommons.org/ns#"
   xmlns:rdf="http://www.w3.org/1999/02/22-rdf-syntax-ns#"
   xmlns:svg="http://www.w3.org/2000/svg"
   xmlns="http://www.w3.org/2000/svg"
   xmlns:xlink="http://www.w3.org/1999/xlink"
   xmlns:sodipodi="http://sodipodi.sourceforge.net/DTD/sodipodi-0.dtd"
   xmlns:inkscape="http://www.inkscape.org/namespaces/inkscape"
   id="svg2"
   viewBox="0 0 200.00001 60.8796"
   version="1.1"
   inkscape:version="0.48.4 r9939"
   width="100%"
   height="100%"
   sodipodi:docname="20110505132230!Tloftr-logo.svg">
  <sodipodi:namedview
     pagecolor="#ffffff"
     bordercolor="#666666"
     borderopacity="1"
     objecttolerance="10"
     gridtolerance="10"
     guidetolerance="10"
     inkscape:pageopacity="0"
     inkscape:pageshadow="2"
     inkscape:window-width="1513"
     inkscape:window-height="951"
     id="namedview3308"
     showgrid="false"
     inkscape:zoom="1.53"
     inkscape:cx="110.53141"
     inkscape:cy="-78.770266"
     inkscape:window-x="0"
     inkscape:window-y="0"
     inkscape:window-maximized="0"
     inkscape:current-layer="svg2"
     fit-margin-top="0"
     fit-margin-left="0"
     fit-margin-right="0"
     fit-margin-bottom="0" />
  <defs
     id="defs4">
    <linearGradient
       id="id18"
       y2="116.12"
       xlink:href="#id4"
       gradientUnits="userSpaceOnUse"
       y1="111.64"
       x2="150.42"
       x1="146.66" />
    <linearGradient
       id="id17"
       y2="116.45"
       xlink:href="#id4"
       gradientUnits="userSpaceOnUse"
       y1="111.35"
       x2="142.27"
       x1="137.99001" />
    <linearGradient
       id="id16"
       y2="116.19"
       xlink:href="#id4"
       gradientUnits="userSpaceOnUse"
       y1="111.72"
       x2="133.5"
       x1="129.75" />
    <linearGradient
       id="id15"
       y2="104.34"
       xlink:href="#id4"
       gradientUnits="userSpaceOnUse"
       y1="99.982002"
       x2="145.63"
       x1="141.97" />
    <linearGradient
       id="id14"
       y2="95.022003"
       xlink:href="#id4"
       gradientUnits="userSpaceOnUse"
       y1="91.997002"
       x2="87.195"
       x1="84.655998" />
    <linearGradient
       id="id13"
       y2="104.9"
       xlink:href="#id4"
       gradientUnits="userSpaceOnUse"
       y1="99.602997"
       x2="137.98"
       x1="133.53999" />
    <linearGradient
       id="id12"
       y2="95.210999"
       xlink:href="#id4"
       gradientUnits="userSpaceOnUse"
       y1="91.772003"
       x2="81.653999"
       x1="78.767998" />
    <linearGradient
       id="id11"
       y2="95.007004"
       xlink:href="#id4"
       gradientUnits="userSpaceOnUse"
       y1="92.011002"
       x2="75.769997"
       x1="73.255997" />
    <linearGradient
       id="id10"
       y2="106.38"
       xlink:href="#id0"
       gradientUnits="userSpaceOnUse"
       y1="115.93"
       x2="191.55"
       x1="182" />
    <linearGradient
       id="id9"
       y2="108.6"
       xlink:href="#id0"
       gradientUnits="userSpaceOnUse"
       y1="119.66"
       x2="221.78"
       x1="210.71001" />
    <linearGradient
       id="id8"
       y2="106.69"
       xlink:href="#id0"
       gradientUnits="userSpaceOnUse"
       y1="115.65"
       x2="205.81"
       x1="196.85001" />
    <linearGradient
       id="id7"
       y2="98.042"
       xlink:href="#id0"
       gradientUnits="userSpaceOnUse"
       y1="117.75"
       x2="84.25"
       x1="64.538002" />
    <linearGradient
       id="id6"
       y2="103.62"
       xlink:href="#id0"
       gradientUnits="userSpaceOnUse"
       y1="117"
       x2="170.78999"
       x1="157.41" />
    <linearGradient
       id="id5"
       y2="113.21"
       xlink:href="#id0"
       gradientUnits="userSpaceOnUse"
       y1="113.38"
       x2="190.83"
       x1="190.64999" />
    <linearGradient
       id="id4"
       y2="110.84"
       gradientUnits="userSpaceOnUse"
       y1="110.63"
       x2="131.92"
       x1="131.74001">
      <stop
         id="stop4049"
         stop-color="#C90"
         offset="0" />
      <stop
         id="stop4051"
         stop-color="#CF9A00"
         offset="0.011765" />
      <stop
         id="stop4053"
         stop-color="#FDFFCE"
         offset="0.25882" />
      <stop
         id="stop4055"
         stop-color="#CF9A00"
         offset="0.36078" />
      <stop
         id="stop4057"
         stop-color="#CF9A00"
         offset="0.43922" />
      <stop
         id="stop4059"
         stop-color="#CF9A00"
         offset="0.65882" />
      <stop
         id="stop4061"
         stop-color="#E1E8E2"
         offset="0.76863" />
      <stop
         id="stop4063"
         stop-color="#C89A00"
         offset="0.98824" />
      <stop
         id="stop4065"
         stop-color="#CF9A00"
         offset="1" />
    </linearGradient>
    <linearGradient
       id="id3"
       y2="98.705002"
       xlink:href="#id0"
       gradientUnits="userSpaceOnUse"
       y1="118.21"
       x2="118.75"
       x1="99.246002" />
    <linearGradient
       id="id2"
       y2="111.31"
       xlink:href="#id0"
       gradientUnits="userSpaceOnUse"
       y1="111.4"
       x2="173.89"
       x1="173.8" />
    <linearGradient
       id="id1"
       y2="107.53"
       xlink:href="#id0"
       gradientUnits="userSpaceOnUse"
       y1="114.98"
       x2="177.95"
       x1="171.17" />
    <linearGradient
       id="id0"
       y2="106.52"
       gradientUnits="userSpaceOnUse"
       y1="109.05"
       x2="174.10001"
       x1="171.57001">
      <stop
         id="stop4025"
         stop-color="#CC9A00"
         offset="0" />
      <stop
         id="stop4027"
         stop-color="#C89A00"
         offset="0.011765" />
      <stop
         id="stop4029"
         stop-color="#C89A00"
         offset="0.23922" />
      <stop
         id="stop4031"
         stop-color="#FCFF9E"
         offset="0.34902" />
      <stop
         id="stop4033"
         stop-color="#CF9A00"
         offset="0.43137" />
      <stop
         id="stop4035"
         stop-color="#C89A00"
         offset="0.43922" />
      <stop
         id="stop4037"
         stop-color="#CC9A00"
         offset="0.56078" />
      <stop
         id="stop4039"
         stop-color="#FFCE00"
         offset="0.6902" />
      <stop
         id="stop4041"
         stop-color="#CC9A00"
         offset="0.98824" />
      <stop
         id="stop4043"
         stop-color="#CC9A00"
         offset="1" />
    </linearGradient>
    <style
       id="style4022"
       type="text/css">.fil0 {fill:black}
    .fil20 {fill:#E5C93A}
    .fil17 {fill:url(#id0)}
    .fil16 {fill:url(#id1)}
    .fil18 {fill:url(#id2)}
    .fil10 {fill:url(#id3)}
    .fil9 {fill:url(#id4)}
    .fil15 {fill:url(#id5)}
    .fil19 {fill:url(#id6)}
    .fil11 {fill:url(#id7)}
    .fil13 {fill:url(#id8)}
    .fil12 {fill:url(#id9)}
    .fil14 {fill:url(#id10)}
    .fil3 {fill:url(#id11)}
    .fil2 {fill:url(#id12)}
    .fil7 {fill:url(#id13)}
    .fil1 {fill:url(#id14)}
    .fil8 {fill:url(#id15)}
    .fil4 {fill:url(#id16)}
    .fil5 {fill:url(#id17)}
    .fil6 {fill:url(#id18)}</style>
    <linearGradient
       id="linearGradient4487"
       y2="103.62"
       xlink:href="#id0"
       gradientUnits="userSpaceOnUse"
       x2="170.78999"
       gradientTransform="matrix(3.5433071,0,0,3.5433071,-515.40071,106.23231)"
       y1="117"
       x1="157.41" />
    <linearGradient
       id="linearGradient4491"
       y2="106.52"
       xlink:href="#id0"
       gradientUnits="userSpaceOnUse"
       x2="174.10001"
       gradientTransform="matrix(3.5433071,0,0,3.5433071,-515.40071,106.23231)"
       y1="109.05"
       x1="171.57001" />
    <linearGradient
       id="linearGradient4494"
       y2="107.53"
       xlink:href="#id0"
       gradientUnits="userSpaceOnUse"
       x2="177.95"
       gradientTransform="matrix(3.5433071,0,0,3.5433071,-515.40071,106.23231)"
       y1="114.98"
       x1="171.17" />
    <linearGradient
       id="linearGradient4497"
       y2="113.21"
       xlink:href="#id0"
       gradientUnits="userSpaceOnUse"
       x2="190.83"
       gradientTransform="matrix(3.5433071,0,0,3.5433071,-515.40071,106.23231)"
       y1="113.38"
       x1="190.64999" />
    <linearGradient
       id="linearGradient4500"
       y2="106.38"
       xlink:href="#id0"
       gradientUnits="userSpaceOnUse"
       x2="191.55"
       gradientTransform="matrix(3.5433071,0,0,3.5433071,-515.40071,106.23231)"
       y1="115.93"
       x1="182" />
    <linearGradient
       id="linearGradient4503"
       y2="106.69"
       xlink:href="#id0"
       gradientUnits="userSpaceOnUse"
       x2="205.81"
       gradientTransform="matrix(3.5433071,0,0,3.5433071,-515.40071,106.23231)"
       y1="115.65"
       x1="196.85001" />
    <linearGradient
       id="linearGradient4506"
       y2="108.6"
       xlink:href="#id0"
       gradientUnits="userSpaceOnUse"
       x2="221.78"
       gradientTransform="matrix(3.5433071,0,0,3.5433071,-515.40071,106.23231)"
       y1="119.66"
       x1="210.71001" />
    <linearGradient
       id="linearGradient4513"
       y2="98.042"
       xlink:href="#id0"
       gradientUnits="userSpaceOnUse"
       x2="84.25"
       gradientTransform="matrix(3.5433071,0,0,3.5433071,-515.40071,106.23231)"
       y1="117.75"
       x1="64.538002" />
    <linearGradient
       id="linearGradient4516"
       y2="98.705002"
       xlink:href="#id0"
       gradientUnits="userSpaceOnUse"
       x2="118.75"
       gradientTransform="matrix(3.5433071,0,0,3.5433071,-515.40071,106.23231)"
       y1="118.21"
       x1="99.246002" />
    <linearGradient
       id="linearGradient4534"
       y2="110.84"
       xlink:href="#id4"
       gradientUnits="userSpaceOnUse"
       x2="131.92"
       y1="110.63"
       x1="131.74001" />
    <linearGradient
       inkscape:collect="always"
       xlink:href="#id4"
       id="linearGradient3310"
       gradientUnits="userSpaceOnUse"
       x1="131.74001"
       y1="110.63"
       x2="131.92"
       y2="110.84" />
    <linearGradient
       inkscape:collect="always"
       xlink:href="#id0"
       id="linearGradient3312"
       gradientUnits="userSpaceOnUse"
       x1="171.57001"
       y1="109.05"
       x2="174.10001"
       y2="106.52" />
  </defs>
  <metadata
     id="metadata7">
    <rdf:RDF>
      <cc:Work
         rdf:about="">
        <dc:format>image/svg+xml</dc:format>
        <dc:type
           rdf:resource="http://purl.org/dc/dcmitype/StillImage" />
        <dc:title></dc:title>
      </cc:Work>
    </rdf:RDF>
  </metadata>
  <g
     id="layer1"
     transform="matrix(0.27139621,0,0,0.27139621,105.53784,-102.59591)">
    <rect
       id="rect4083"
       height="224.32001"
       width="736.92999"
       y="378.03"
       x="-388.87"
       class="fil0"
       style="fill:#000000" />
    <g
       id="g4086"
       transform="matrix(3.5433071,0,0,3.5433071,-515.40071,106.23231)">
      <path
         id="_58098968"
         d="m 87.801,90.809 -0.7363,-0.035 -0.5259,0.035 -2.5595,0 -0.2455,0.2104 0.2104,0.0701 0.1403,0.1052 c 0.1402,0.1052 0.1753,0.1753 0.1753,0.3156 v 0.3506 l 0.035,0.2805 c 0.1052,0.035 0.1403,0.1402 0.1052,0.2454 l -0.1052,0.2805 0.1403,0.2454 c -0.0701,0.1403 -0.0701,0.2104 0,0.3507 l -0.0701,0.4908 -0.0702,1.6479 c 0,0.1753 -0.035,0.3156 -0.1753,0.4909 l -0.2454,0.0701 -0.1753,0.2104 0.1753,0.0351 3.6815,0.035 0.0701,-0.035 c 0.1753,-0.0351 0.2805,-0.1052 0.3156,-0.2805 l 0.1051,-0.4208 0.1052,-0.6662 -0.1052,-0.035 h -0.1051 l -0.1052,0.1402 -0.0702,0.1403 -0.2454,0.3155 -0.3155,0.2455 -0.4558,0.0701 h -0.7714 c -0.316,-0.035 -0.492,-0.14 -0.667,-0.316 -0.07,-0.105 -0.105,-0.175 -0.07,-0.28 v -0.2805 l 0.0701,-0.2804 v -0.3507 c -0.1052,-0.035 -0.1052,-0.1402 0,-0.1753 l 0.0351,-0.2454 0.035,-0.0351 h 0.1052 1.2272 c 0.0351,0.0351 0.0351,0.0351 0.1402,0.0351 l 0.3857,0.2104 0.1753,0.2103 0.2104,-0.0701 0.0701,-1.3323 -0.0701,-0.1052 -0.2104,0.1052 -0.0701,0.2454 c -0.1402,0.0701 -0.2805,0.1402 -0.4558,0.1753 l -1.577,-0.035 c -0.0701,-0.1051 -0.1052,-0.2454 -0.0701,-0.3856 0.0701,-0.1052 0.0701,-0.2455 0,-0.3857 l 0.1052,-0.4558 -0.1052,-0.4909 c 0.1052,-0.1052 0.2104,-0.1052 0.3506,-0.1052 l 1.0869,0.0702 0.2104,-0.0702 h 0.1753 l 0.1403,0.1052 c 0.1402,0 0.2103,0.1403 0.2805,0.2805 l 0.1402,0.3857 0.1402,-0.0351 0.0702,-0.9116 0.1052,-0.1753 c 0,-0.1052 -0.0351,-0.1402 -0.1403,-0.2104 z"
         class="fil1"
         style="fill:url(#id14)"
         inkscape:connector-curvature="0" />
      <path
         id="_69891472"
         d="m 82.542,91.511 0.2455,-0.3156 c 0.0701,-0.1052 0.2103,-0.1753 0.3506,-0.1753 L 83.2082,90.95 v -0.0701 l -0.596,-0.1052 -0.526,0.035 -0.8414,-0.035 -0.3507,0.1402 c 0.1052,0.1052 0.2104,0.1403 0.3507,0.1753 l 0.2103,0.2805 0.1052,0.3156 0.1403,1.0168 c 0.035,0.2454 0,0.4207 -0.1403,0.561 l -0.596,-0.1403 h -1.683 c -0.1753,0.0701 -0.3156,0 -0.4558,-0.0701 v -0.9116 l 0.1402,-0.8415 0.3156,-0.2104 0.1402,-0.035 0.1403,-0.1052 -0.1403,-0.1403 c -0.035,0 -0.0701,0 -0.0701,-0.035 l -1.9985,0.1052 -0.1402,0.1753 0.3155,0.1052 0.1753,0.1402 c 0.0701,0.1403 0.1753,0.3156 0.1753,0.4558 l 0.0351,0.8064 -0.0351,0.3506 c 0.1052,0.1403 0.1052,0.3156 0.0351,0.4909 l -0.0351,0.8766 c -0.035,0.0701 -0.035,0.1753 0.0351,0.2805 0.0701,0.035 0.0701,0.1402 0.0701,0.2804 l -0.0701,0.4558 -0.1403,0.4208 c -0.035,0.1753 -0.1402,0.2104 -0.2454,0.2104 l -0.2104,0.1051 -0.1051,0.1403 0.8414,0.0351 0.0702,-0.0351 1.2271,0.0351 0.2104,-0.1403 -0.2805,-0.1052 c -0.211,-0.071 -0.316,-0.246 -0.351,-0.456 l -0.1052,-0.561 0.0351,-0.6311 -0.0702,-0.2454 0.0351,-0.2805 0.2454,-0.1753 1.7882,0.035 0.7012,-0.2454 0.0351,0.3506 -0.0351,0.2805 0.0351,0.3156 c 0.0701,0.3857 0.0701,0.8064 -0.0701,1.2271 0,0.1403 -0.1052,0.2455 -0.2455,0.3156 l -0.2805,0.1402 v 0.1403 h 2.1388 l 0.0351,-0.1403 -0.2455,-0.1051 -0.1753,-0.1403 c -0.1402,-0.2805 -0.2104,-0.561 -0.2104,-0.9467 l -0.035,-0.9817 c -0.0351,-0.1052 -0.0351,-0.2104 0,-0.3155 l 0.035,-0.5961 v -0.3857 c -0.0701,-0.1402 -0.0701,-0.3155 -0.035,-0.4558 0.1052,-0.2103 0.1052,-0.3857 0.035,-0.596 z"
         class="fil2"
         style="fill:url(#id12)"
         inkscape:connector-curvature="0" />
      <path
         id="_69815768"
         d="m 75.6,90.809 -0.1052,0.1052 -2.1037,-0.1402 -0.3857,0.035 -0.3155,-0.035 -0.1052,0.1402 -0.0351,0.1052 -0.1052,0.9467 -0.0701,0.1753 c -0.035,0.1052 -0.035,0.1753 0,0.2454 0.1753,-0.0701 0.2455,-0.1052 0.3156,-0.2454 L 72.76,91.8258 C 72.8652,91.5103 73.0405,91.37 73.321,91.37 h 0.7714 v 0.4558 c 0,0.2805 0.1051,0.4558 0.2454,0.5961 l -0.1403,0.035 -0.1051,2.2791 c 0.035,0.2103 0.035,0.2805 0,0.4207 l -0.0351,0.5259 c -0.1052,0.1403 -0.2104,0.2455 -0.3506,0.2805 -0.1753,0 -0.3156,0.0701 -0.4208,0.2104 0.0351,0.0351 0.1052,0.0701 0.2455,0.0701 l 2.2089,-0.035 0.1051,-0.0351 c 0.0351,-0.0701 0.0351,-0.1403 -0.035,-0.2104 L 75.2845,95.893 75.1442,95.3671 75.039,94.9463 c 0.0351,-0.1402 0.0351,-0.3506 0,-0.5259 l -0.035,-0.5259 c 0.035,-0.2805 0.0701,-0.6311 0.035,-0.9818 L 75.004,91.896 c 0.035,-0.0702 0.035,-0.2104 0.035,-0.3857 l 0.1753,-0.1403 0.9116,-0.0701 c 0.1403,0 0.2455,0.1753 0.2805,0.4558 v 0.2454 l 0.1052,0.2455 0.1403,-0.0702 0.035,-1.3674 -0.035,-0.035 -0.9116,0.035 H 75.6 z"
         class="fil3"
         style="fill:url(#id11)"
         inkscape:connector-curvature="0" />
    </g>
    <g
       id="g4091"
       transform="matrix(3.5433071,0,0,3.5433071,-515.40071,106.23231)">
      <path
         id="_69863352"
         d="m 134.82,109.88 -1.5778,0.0702 -0.1753,0.1051 -3.1205,-0.1402 -0.5259,0.0351 -0.5259,-0.0351 -0.1052,0.1052 c 0,0.035 -0.0351,0.0701 -0.0701,0.1753 l -0.2104,1.4025 c 0,0.1051 -0.0351,0.2103 -0.1052,0.3155 -0.0351,0.1403 0,0.2104 0.0701,0.3156 0.2455,-0.0351 0.3857,-0.1052 0.3857,-0.3156 l 0.1753,-0.5259 c 0.1052,-0.2805 0.2805,-0.4909 0.4558,-0.5259 l 1.4726,-0.0351 0.0701,0.561 c 0,0.1753 0,0.3155 0.0702,0.5259 l 0.2103,0.4558 c 0,0 -0.0701,0.0351 -0.1052,0.0351 h -0.035 l -0.1403,4.0321 c -0.1052,0.1753 -0.1052,0.4207 -0.1052,0.6662 l -0.5259,0.4558 -0.3155,0.0701 -0.2455,0.1753 c 0.0351,0.1402 0.1403,0.2104 0.2805,0.1402 l 3.2958,-0.035 0.1403,-0.1052 c 0.1052,-0.1052 0.1052,-0.1402 0,-0.2454 l -0.7714,-0.0702 c -0.1052,-0.1051 -0.1052,-0.1402 -0.1052,-0.3506 l -0.1402,-0.5259 -0.1052,-0.5961 0.0351,-0.7012 -0.1403,-0.8064 0.1403,-1.4726 -0.1403,-1.4726 c 0.1052,-0.1753 0.1403,-0.3857 0.1052,-0.5961 l 0.2454,-0.2103 1.3674,-0.1403 c 0.1754,0.0351 0.3156,0.2805 0.3857,0.7013 l 0.0351,0.3856 c -0.0351,0.1052 0,0.2455 0.035,0.3507 0.1403,0.035 0.2104,0 0.3156,-0.1052 v -0.9818 c -0.0701,-0.3856 0,-0.7362 0.0701,-1.0518 L 134.82,109.88 z"
         class="fil4"
         style="fill:url(#id16)"
         inkscape:connector-curvature="0" />
      <path
         id="_58764928"
         d="m 139.02,109.95 -0.2454,-0.0351 -2.9452,0.0351 c -0.0701,0.0701 -0.1403,0.1402 -0.1403,0.2805 0.1403,0.1051 0.2805,0.1402 0.4208,0.1402 l 0.2454,0.2454 c 0.1753,0.2104 0.2805,0.3857 0.2805,0.6662 v 0.7012 l 0.0351,0.4909 -0.0351,0.5259 0.1403,0.3507 -0.1052,0.4207 -0.0351,1.2973 c -0.1052,0.1402 -0.035,0.2454 0.0351,0.3857 0.1052,0.0701 0.1753,0.2805 0.1052,0.4558 -0.1052,0.2103 -0.1052,0.3856 -0.1403,0.6311 l -0.1402,0.6661 -0.3156,0.2805 c -0.2104,0.0351 -0.2805,0.0702 -0.4207,0.1403 -0.1052,0.0351 -0.1052,0.0701 -0.1052,0.2104 h 1.2622 l 0.0701,-0.0351 1.8232,0.1052 0.2104,-0.1052 0.1403,-0.1402 -0.4558,-0.1052 c -0.3156,-0.1753 -0.4558,-0.3507 -0.561,-0.7013 -0.0351,-0.2454 -0.0702,-0.561 -0.0702,-0.8765 l -0.0701,-0.4558 0.0701,-0.4208 -0.1051,-0.3155 v -0.2454 c 0,-0.1052 0,-0.1754 0.035,-0.2455 l 0.2104,-0.1753 0.2104,-0.0351 h 2.6296 c 0.3506,-0.0701 0.7012,-0.1402 1.0168,-0.3506 l 0.0701,0.526 c -0.0701,0.1051 -0.0701,0.2454 0,0.4207 l 0.0351,0.4909 c 0.1052,0.561 0.035,1.2271 -0.1403,1.7881 0,0.2454 -0.1052,0.3857 -0.3506,0.4208 -0.1753,0 -0.3155,0.1051 -0.4558,0.2454 l 0.0351,0.1753 h 3.0854 l 0.1403,-0.1753 c -0.1052,-0.0701 -0.1754,-0.0701 -0.3156,-0.1052 l -0.3506,-0.2454 c -0.1753,-0.4208 -0.2805,-0.8766 -0.3156,-1.3674 v -1.5077 c -0.0701,-0.1402 -0.0701,-0.2805 -0.0701,-0.3857 l 0.1402,-0.9466 v -0.5961 c -0.1402,-0.2454 -0.1402,-0.4909 -0.0701,-0.7363 0.0701,-0.2104 0.1403,-0.4909 0.0701,-0.7363 l 0.2805,-0.5259 c 0.1754,-0.1753 0.3507,-0.2454 0.526,-0.2805 0.0701,-0.0351 0.1052,-0.1052 0.1402,-0.0351 l 0.0701,-0.1402 -0.4207,-0.1403 -1.2973,0.0702 -1.3323,-0.0351 c -0.1753,-0.0351 -0.3156,0.0351 -0.4208,0.1753 l 0.2104,0.1403 0.2805,0.1051 c 0.1402,0.1052 0.2805,0.1753 0.3155,0.3857 l 0.1403,0.4208 0.1052,0.7713 c 0,0.2104 0.035,0.4909 0.1052,0.8415 0.0701,0.3156 0.035,0.561 -0.1403,0.8064 l -0.9467,-0.2454 h -2.8049 l -0.3156,-0.1052 c -0.0701,-0.4207 -0.0701,-0.8415 0,-1.2973 0,-0.4558 0.0351,-0.8765 0.1754,-1.2973 0.1051,-0.1402 0.2805,-0.2805 0.4558,-0.2805 l 0.4558,-0.1753 -0.1403,-0.2103 z"
         class="fil5"
         style="fill:url(#id17)"
         inkscape:connector-curvature="0" />
      <path
         id="_69784960"
         d="m 146.21,109.92 -0.5259,0.0351 c -0.2455,-0.0351 -0.3507,0 -0.3857,0.2454 l 0.561,0.2805 c 0.1402,0.1052 0.2103,0.2454 0.2454,0.4207 v 0.561 c -0.0351,0.0701 0,0.1052 0,0.1403 l 0.0351,0.3155 c 0.1402,0.0351 0.2103,0.1753 0.1402,0.3156 l -0.1402,0.3857 c 0,0.0701 0.0701,0.2454 0.2103,0.3155 l -0.1052,0.3506 0.1052,0.2805 c -0.0701,0.1403 -0.1052,0.3857 -0.1402,0.7013 v 0.9817 c -0.0701,0.3506 0,0.561 0,0.7363 -0.0701,0.1753 -0.0701,0.4558 -0.0701,0.7363 0.0701,0.2454 -0.0351,0.4908 -0.2805,0.6311 l -0.3156,0.2104 c -0.1402,0 -0.2454,0.1052 -0.2805,0.2454 l 0.2805,0.1052 0.3156,-0.0701 5.154,0.1051 0.0351,-0.035 c 0.2454,-0.1052 0.3857,-0.2454 0.4558,-0.4208 l 0.1753,-0.6311 c 0.1052,-0.1753 0.1403,-0.3155 0.1403,-0.5259 -0.0351,-0.1753 -0.0351,-0.3156 0,-0.4558 0,-0.1052 -0.0351,-0.1402 -0.1403,-0.1052 h -0.1753 c -0.0701,0.0351 -0.1402,0.1403 -0.1402,0.2104 l -0.0702,0.2104 -0.4207,0.4908 -0.4558,0.4208 -0.6311,0.035 h -1.1921 c -0.3506,-0.035 -0.7013,-0.1753 -0.9817,-0.5259 -0.0351,-0.0701 -0.1052,-0.2104 -0.0351,-0.3506 v -0.3506 l 0.0701,-0.4558 -0.035,-0.4909 c -0.1052,-0.1403 -0.1052,-0.2454 -0.0351,-0.3156 l 0.1402,-0.3506 c 0,0 0,-0.035 0.0702,-0.035 l 0.1051,-0.0351 1.8583,0.0351 0.3156,0.1051 c 0.1402,0 0.3506,0.0702 0.4207,0.1754 l 0.2805,0.4207 c 0.1052,0 0.2104,-0.0351 0.2805,-0.1403 l 0.1052,-1.9634 -0.0351,-0.1753 c -0.2103,-0.0351 -0.2805,0 -0.3506,0.1753 l -0.1402,0.3155 -0.5961,0.2805 -2.3842,-0.035 c -0.0701,-0.2104 -0.1402,-0.3506 -0.0701,-0.561 0.0701,-0.2104 0.0701,-0.3857 0,-0.5961 0.1402,-0.1753 0.1753,-0.3506 0.1402,-0.6661 l -0.1402,-0.7013 c 0.1402,-0.1753 0.2805,-0.2454 0.4558,-0.1753 l 1.6128,0.1052 0.1753,-0.1052 h 0.2104 l 0.3857,0.1403 c 0.2104,0.035 0.4207,0.1753 0.4207,0.4207 0.0351,0.2454 0.0702,0.4207 0.2104,0.6311 l 0.2454,-0.1052 0.1052,-1.3323 0.1052,-0.3156 c 0.0351,-0.1052 0,-0.2103 -0.1402,-0.2454 h -1.9635 c -0.5259,0.1052 -1.0168,0.0351 -1.6128,0 -0.4909,-0.1052 -1.087,-0.1052 -1.5778,0 z"
         class="fil6"
         style="fill:url(#id18)"
         inkscape:connector-curvature="0" />
    </g>
    <g
       id="g4096"
       transform="matrix(3.5433071,0,0,3.5433071,-515.40071,106.23231)">
      <path
         id="_69898864"
         d="m 132.41,99.304 -0.4208,0.3506 c -0.2805,0.3857 -0.4558,0.7714 -0.5259,1.1571 l -0.0351,0.596 -0.2103,0.4909 v 0.2103 l 0.0701,0.1052 0.1402,0.6311 c 0.0351,0.0702 0.0351,0.2805 0.0351,0.4558 0.0701,0 0.1052,0.1052 0.0701,0.1403 l 0.0351,0.2104 0.1753,0.3155 c 0.1052,0.0351 0.2104,0.1753 0.2454,0.2805 l 0.1052,0.4208 0.2104,0.3856 0.3506,0.3857 0.4207,0.2454 c 0.1753,0.2104 0.4208,0.3156 0.7013,0.3507 0.2454,0.0701 0.5259,0.1402 0.7713,0.3506 l 0.2805,0.1052 h 1.9284 c 0.7013,-0.0702 1.3324,-0.2104 1.8934,-0.4909 -0.0351,-0.1052 -0.1403,-0.1052 -0.2805,-0.1052 l -0.3156,0.0701 0.8766,-0.5259 0.7363,-0.8064 0.3155,-0.8064 c 0,-0.2455 0.0351,-0.4208 0.1753,-0.6311 0.0701,-0.1754 0.1052,-0.3507 0.0701,-0.6312 0.0702,-0.2804 0.0702,-0.596 0,-0.8064 l -0.1402,-0.8064 c -0.1403,-0.4909 -0.3857,-0.9116 -0.6662,-1.3323 -0.1402,-0.2805 -0.3857,-0.4558 -0.561,-0.6312 -0.2805,-0.1402 -0.5259,-0.3155 -0.7363,-0.4908 l -0.561,-0.2455 -0.4558,-0.035 c -0.2103,-0.1753 -0.3856,-0.2104 -0.6311,-0.2104 l -0.6661,0.0351 -0.526,-0.0351 -0.561,0.0351 -0.8414,0.3155 -0.526,0.0702 c -0.1753,0 -0.3155,0.0701 -0.4558,0.2103 l 0.1753,0.0351 0.3507,-0.1403 0.3506,0.0351 -0.0702,0.1052 -0.8064,0.3155 c -0.2103,0.0702 -0.3506,0.1754 -0.4908,0.3156 z m 1.4375,0.0351 0.8765,-0.561 1.2973,-0.0701 0.0702,0.0701 1.0167,0.3155 c 0.3156,0.2455 0.5961,0.561 0.8065,0.9116 l 0.561,1.087 c 0.1402,0.5609 0.2454,1.1921 0.1753,1.8232 0.0701,0.4558 -0.0351,0.8064 -0.1753,1.157 -0.0702,0.1753 -0.1052,0.3156 -0.2104,0.4558 l -0.4909,0.6662 -0.3155,0.2104 -0.6312,0.2804 -1.0869,0.0351 -0.3506,-0.0351 -1.0869,-0.4908 -0.1052,-0.1753 -0.7363,-0.6662 c 0,-0.2104 -0.035,-0.3506 -0.1052,-0.4909 l -0.1402,-0.4207 -0.2454,-0.3857 -0.1403,-0.3155 0.1052,-0.2805 c 0,-0.1052 0,-0.2455 -0.0351,-0.2805 l 0.0351,-0.561 c 0,-0.2104 0.0351,-0.3857 0,-0.5961 0.1052,-0.0701 0.1402,-0.1402 0.1402,-0.2103 v -0.2805 c -0.035,-0.2455 0.0351,-0.4909 0.2455,-0.6311 0.1753,-0.1754 0.3856,-0.3156 0.5259,-0.561 z"
         class="fil7"
         style="fill:url(#id13)"
         inkscape:connector-curvature="0" />
      <path
         id="_69832296"
         d="m 141.31,98.252 -0.2805,-0.1051 c -0.1403,0 -0.2455,0 -0.3507,0.1402 v 0.2104 l 0.1403,0.0701 c 0.1402,-0.0351 0.2805,0.0701 0.3506,0.2104 l 0.2805,0.3857 0.0701,0.2103 v 0.2104 c 0.1052,0.2805 0.2455,0.561 0.2455,0.8765 0.0701,0.3507 -0.0351,0.6312 -0.2455,0.8766 0.1052,0.1753 0.1052,0.3155 0.1052,0.561 l -0.035,0.5259 c 0.035,0.3506 0.1051,0.7363 0.035,1.122 v 1.0869 l -0.2454,0.8415 -0.2104,0.2454 -0.2454,0.1403 -0.1052,0.1051 -0.0701,0.1753 0.4207,0.0351 0.3506,-0.0351 h 1.5427 l 1.122,0.0351 0.1403,-0.0351 0.1052,-0.1402 -0.8766,-0.2805 c -0.1753,-0.0351 -0.3155,-0.1753 -0.4207,-0.3857 l -0.1403,-0.561 0.0701,-0.2805 v -0.2454 c -0.1051,-0.2454 -0.1051,-0.5259 0,-0.7012 0.0702,-0.2455 0.1403,-0.4909 0.0702,-0.7013 0.1052,-0.1402 0.2454,-0.2103 0.3856,-0.1402 l 0.4909,-0.0701 1.5427,0.0701 c 0.2455,0.0701 0.3857,0.2104 0.4208,0.4558 l 0.1052,0.3506 c 0,0.0701 0.1051,0.1403 0.2454,0.1403 l 0.1402,-0.1403 0.1403,-1.718 -0.0701,-0.7012 c -0.1753,0 -0.2805,0.035 -0.3156,0.1402 -0.0351,0.1753 -0.1402,0.3156 -0.2454,0.4207 l -0.4208,0.2455 h -2.4894 v -0.9467 c 0.1403,-0.2805 0.1754,-0.561 0.0702,-0.8064 -0.0702,-0.2805 -0.0702,-0.5259 0,-0.8064 0.1052,-0.2455 0.2454,-0.3507 0.4908,-0.2805 l 1.4726,-0.0702 0.8415,0.1052 0.3857,0.526 0.1402,0.6311 h 0.1753 l 0.1403,-0.1753 0.1052,-0.1753 v -0.8065 c 0.035,-0.2454 0.035,-0.5259 0,-0.8064 l -0.6311,-0.0701 -2.84,0.035 c -0.7013,0.0351 -1.4025,0.0351 -2.1037,0 z"
         class="fil8"
         style="fill:url(#id15)"
         inkscape:connector-curvature="0" />
      <path
         id="_58491952"
         d="m 131.57,110.7 -0.0351,0.0701 c 0.1753,0 0.3506,-0.0351 0.5961,-0.0351 L 131.57,110.7 z"
         class="fil9"
         style="fill:url(#linearGradient3310)"
         inkscape:connector-curvature="0" />
    </g>
    <path
       id="_58783888"
       d="m -77.31,458.79 c -2.4846,-1.491 -4.8451,-2.4846 -7.3297,-3.3544 l -9.3178,-1.9878 -13.79,-0.12401 -0.49712,0.12401 -5.839,0.37276 -1.3663,1.1183 c -0.62149,-0.12437 -1.1183,-0.24839 -1.615,-0.62115 h -1.7394 l -1.3666,0.86953 -0.49677,1.2423 c -0.24874,0.37275 -0.49713,0.37275 -0.62114,0.24838 -0.86988,-0.9939 -1.7394,-1.739 -2.7333,-1.8634 h -3.8512 l -0.62114,0.12437 -0.37276,0.24838 -0.12437,0.24839 -0.86953,0.24838 -0.86952,-0.86952 h -0.49713 l -0.62114,0.12437 h -1.4907 l -1.491,0.24838 -0.49678,0.24839 -0.37275,1.3666 c 0,0 0,0.12437 0.12401,0.37276 l 2.4849,0.24838 h 0.24838 c 0.74551,0.24839 1.491,0.37276 2.3606,1.1183 l 1.4907,0.74516 0.62114,1.7394 c 0.74552,0.86953 1.2426,1.615 1.3667,2.6089 l 0.12437,3.1057 c 0.49677,0.6215 0.86953,1.2426 0.86953,2.1122 l -0.12437,1.3666 -0.24839,0.86953 -0.12402,0.62114 v 1.2423 l 0.12402,0.62114 -0.12402,0.12437 v 0.24838 0.9939 l 0.49678,1.2423 c 0.12437,0.74552 0.12437,1.2426 -0.12437,1.7394 v 0.12437 0.24839 l -0.24839,0.12437 v 0.3724 0.49713 0.49677 0.49712 l 0.24839,-0.12437 0.12437,1.7394 -0.37276,2.3606 c 0.37276,0.49677 0.37276,1.2423 0.24839,1.8634 l -0.24839,1.8634 0.37276,0.62114 c 0.12437,0.74551 0.37275,1.491 0.12437,2.2362 -0.24874,0.62114 -0.24874,1.3666 -0.24874,1.9878 l 0.12437,2.9817 c -0.37276,0.74551 -0.49678,1.3666 -0.37276,2.2362 v 2.1122 c 0.37276,0.74516 0.49713,1.2423 0.37276,1.8634 l -0.12437,1.4907 c -0.24839,0.37275 -0.37241,0.86988 -0.24839,1.3666 l 0.24839,2.7333 -0.24839,2.8573 c -0.49677,0.24839 -0.62114,0.74551 -0.49677,1.1183 l 0.49677,1.1179 c 0.24839,0.37276 0.24839,0.86953 0,1.3667 -0.24839,0.49677 -0.24839,0.99389 0,1.4907 0.37276,0.49712 0.24839,1.1183 -0.12402,1.615 0,0.74552 -0.12437,1.7394 -0.62114,2.4849 l -0.86988,2.4846 -1.8634,1.3667 c -0.37275,0.12401 -0.49712,0.12401 -0.62114,0 l -1.7394,-0.37276 -1.8634,-0.9939 -1.491,-0.37275 -4.348,-4.348 -4.4724,-6.7089 -6.5845,-11.554 -1.3666,-2.9817 c -0.62114,-0.9939 -1.1179,-1.9878 -1.1179,-3.2301 l 1.8634,-1.491 4.8451,-5.2179 1.4907,-2.4846 0.37275,-0.62114 0.24839,-0.86953 0.86988,-1.9878 1.2423,-8.1996 v -0.24839 l -0.37276,-1.1183 v -1.4907 l -1.8634,-5.0938 c -0.62114,-1.615 -1.8634,-3.1057 -3.3544,-4.4724 -1.615,-1.4907 -3.4785,-2.733 -5.3419,-3.7268 l -1.7394,-0.62114 h -0.24839 l -0.74551,-0.12437 -0.24839,-0.24838 -1.615,-0.24839 v -0.24874 l -1.491,-0.12402 -0.12402,-0.24874 h -0.12437 l -2.6089,-0.24838 c -0.24839,0 -0.62114,0 -0.74551,-0.37276 l -5.0935,-0.12401 h -1.1183 l -12.299,0.49677 -3.4785,0.49712 -7.3297,0.12402 -2.2365,0.37276 c -0.9939,-0.12402 -1.615,0.12437 -1.9874,0.86952 l 0.37241,1.491 1.7394,0.12401 1.8634,0.74551 h 0.24874 l 0.62114,0.12438 1.4907,1.3666 0.37276,0.49677 0.62114,1.9878 0.24839,1.9878 v 0.62114 l 0.24838,0.86953 0.37276,0.74551 0.49712,5.3422 -0.37275,0.12401 v 0.12437 l -0.12437,0.74516 0.12437,4.4727 c 0.37275,0.49677 0.74551,0.99389 0.74551,1.739 v 0.49713 l -0.86988,2.6089 c -0.37276,0.9939 -0.37276,2.2362 0.12437,3.3544 0.24838,0.49677 0.37275,0.99355 0,1.4907 l -0.12437,1.7394 0.12437,1.1179 v 5.4663 l 0.37275,1.1183 0.12402,0.12437 0.86988,0.86953 -0.9939,1.9878 c -0.49712,0.86952 -0.49712,1.739 -0.37275,2.4846 v 4.9695 l 0.37275,0.9939 -0.37275,1.2423 v 0.86953 l -0.12437,1.491 v 2.2362 c 0,0.86953 -0.12402,1.4907 -0.37276,2.1118 0.24874,0.86988 0.24874,1.7394 0,2.6089 l -0.62114,2.3606 -1.4907,1.7394 -1.7394,1.4907 -1.9878,0.37276 c -0.86953,0 -1.4907,0.37275 -1.9874,0.86953 v 0.62114 l 0.12402,0.99389 1.491,0.37276 4.9691,-0.12437 0.9939,-0.24839 9.1935,-0.24838 h 0.12437 l 1.2423,0.24838 h 0.9939 l 2.1118,0.24839 4.3484,0.12437 3.1057,-0.12437 1.1183,-0.24839 h -0.12437 l 0.49713,-0.74515 v -0.9939 l -1.3666,-0.49713 -1.9878,-0.37275 -1.4907,-0.74516 -2.1122,-1.1183 -1.615,-1.9878 -0.12437,-1.2423 c 0.12437,-0.99389 0,-1.615 -0.24839,-2.4846 -0.49677,-0.62114 -0.62114,-1.491 -0.62114,-2.3606 l 0.12437,-0.74552 -0.37276,-0.86952 -0.12437,-2.7333 v -0.24839 -2.3606 -0.37275 c 0.12437,-1.4907 0.12437,-2.8573 0.12437,-4.224 l -0.49712,-4.8451 0.24874,-0.12401 0.49677,-0.49713 0.9939,-0.37276 h 0.12437 l 0.24838,0.12437 2.2362,0.37276 h 0.37276 l 3.8512,-0.49713 h 0.49677 1.9878 0.74551 l 0.62114,0.49713 1.8634,4.348 4.224,7.9512 c 0.6215,1.4907 1.491,3.1057 2.6089,4.5967 l 3.1061,4.7207 3.6028,3.9756 1.8634,1.7394 1.9878,1.1179 h 0.24838 l 0.12437,0.24874 1.615,0.49677 1.7391,0.74551 h 1.615 l 1.2426,0.37276 0.49677,-0.12437 c 0.12437,0.12437 0.49712,0.37275 0.86953,0.37275 h 0.12437 l 0.99389,-0.37275 h 6.0874 l 5.839,0.37275 h 0.12437 l 0.86953,-0.37275 h 0.49712 0.49678 l 0.62114,0.12437 h 0.62114 l 0.9939,-0.12437 h 6.0878 l 1.2423,0.37275 h 13.045 l 0.74516,-0.24838 h 0.12437 l 2.9817,-0.12437 3.8512,-0.49713 0.49677,-0.24839 1.8638,-0.24838 h 0.49677 l 1.2423,-0.24839 h 0.24874 l 0.24838,-0.24838 h 0.62114 0.12437 v -0.24874 c 0.86953,0 1.7391,-0.12402 2.6089,-0.62114 l 1.1179,-0.49678 1.3667,-0.37275 1.615,-1.1183 0.37276,-0.24839 2.1118,-1.2423 c 1.7394,-0.74551 3.1061,-1.8634 4.224,-3.2301 l 3.8512,-4.3483 3.6028,-6.5845 2.4849,-7.3297 v -0.49677 l 0.62114,-2.9817 v -0.49713 l 0.37276,-2.733 0.12402,-2.8577 c 0.37276,-0.86953 0.37276,-1.615 0.24874,-2.4846 v -0.49678 l -0.24874,-0.86988 0.24874,-1.9878 -1.1183,-4.224 c -0.24839,-1.4907 -0.62114,-2.8573 -0.9939,-4.348 l -1.615,-4.3484 c -0.49713,-1.4907 -1.3667,-2.9817 -2.4846,-4.224 l -2.8577,-3.4785 c -1.8634,-2.1122 -4.0996,-3.8512 -6.4602,-5.2179 z m -12.548,3.7268 1.3667,0.62149 3.3541,2.2362 c 0.37276,0.62115 0.86988,1.1179 1.3667,1.615 0.62114,0.37276 0.9939,0.86953 1.1183,1.7391 1.2423,0.9939 2.2362,2.3606 2.8573,3.9756 0.74551,0.49713 0.86953,0.9939 0.74551,1.8634 l 1.2423,1.615 0.49677,1.7394 v 0.12437 l -0.12402,-0.12437 c 0.12402,0.49713 0.37276,0.9939 0.74516,1.3667 l 0.62114,0.62114 c -0.12402,0.49677 0,0.9939 0.37276,1.3666 l 0.74551,1.1179 0.24839,0.24874 c 0,0.24838 0,0.62114 -0.37276,0.99354 -0.12402,0.49713 0.12437,0.9939 0.62114,1.1183 h 2.1122 l 1.9878,-0.24839 1.4907,0.24839 h 0.12437 l 0.37276,-0.12437 h 0.9939 l 1.3663,0.12437 1.1183,0.37275 0.37276,0.12437 -0.12437,0.49677 h -0.24839 l -0.9939,0.37276 -0.12437,0.12402 h -0.3724 -0.37276 -0.49713 c 0,0 -0.12402,-0.12402 -0.24839,-0.12402 h -0.86953 l -6.0878,0.62114 -0.74516,0.62114 -0.24839,0.12437 -0.24874,0.86953 0.74551,1.2423 c 0.24839,0.37276 0.24839,0.86953 0,1.3667 l -0.12437,1.3666 v 0.12402 c -0.12402,0.49712 0,0.9939 0.12437,1.491 l 0.24839,0.37276 -0.37276,1.3663 v 0.12437 0.37275 0.12437 l 0.12437,0.86953 -0.12437,0.49677 -0.49677,1.2423 v -0.24839 l -0.62114,5.0939 c -0.24839,1.4907 -0.74551,2.9813 -1.615,4.0996 -0.74551,1.3667 -1.491,2.8573 -1.9878,4.224 l -2.6089,3.3544 c -1.2423,0.49677 -2.3606,1.3663 -3.2301,2.2362 -0.9939,0.74516 -2.1122,1.4907 -3.3544,1.7391 l -1.615,0.49712 c -0.49677,0.37276 -0.9939,0.62114 -1.8634,0.37276 l -5.839,0.86953 -13.914,-1.3667 -1.8638,0.12437 -2.3602,-0.62114 h -0.12437 l -0.37276,-0.62114 0.86953,-0.9939 0.74551,-0.49713 1.3666,-0.37275 c 0.49677,-0.12402 0.74551,-0.3724 0.74551,-0.74516 l -0.62114,-1.615 -0.12437,-2.7333 -0.12437,-0.99389 v -0.74551 l 0.24874,-1.615 v -0.12402 -0.86988 l -0.24874,-0.62114 c -0.24838,-0.86953 -0.24838,-1.7391 0,-2.3602 l 0.12437,-5.2179 c -0.12437,-1.1183 -0.12437,-2.1122 0,-3.1061 l -0.37275,-19.629 c 0.37275,-0.86988 0.49712,-1.7394 0.24838,-2.3606 -0.24838,-0.86952 -0.24838,-1.7394 0,-2.4846 0.12437,-0.86989 0.12437,-1.8638 0,-2.7333 v -0.12437 l 0.12437,-1.9878 -0.12437,-0.3724 v -0.62114 c -0.24838,-1.1183 -0.24838,-2.1122 0.12437,-3.1061 v -1.1179 l 0.12437,-0.49712 h 0.24839 l 1.9878,-0.49677 1.9878,-0.24874 4.224,-0.62115 4.9691,0.12437 4.224,0.74552 0.49713,-0.24874 1.7391,0.37275 0.12437,0.37276 c 0.49713,0.12437 1.1183,0.49712 1.615,0.49712 l 0.37276,0.12402 1.9878,0.86953 z m -68.702,3.8516 0.49712,1.1179 1.615,2.8573 0.24839,0.9939 0.37275,0.37275 0.37276,1.491 c 0.24839,0.86952 0.24839,1.8634 0.12402,2.8573 l -0.37276,3.2301 c -0.49677,0.86952 -0.62114,1.615 -0.62114,2.6089 0,0.9939 -0.37276,2.1118 -0.86953,2.733 v 0.62149 l -2.1122,2.733 c -0.74516,0.86952 -1.3663,1.3666 -2.3602,1.615 l -2.9817,1.7394 -3.6028,0.62115 -1.8634,-0.24839 -1.7394,0.12402 c -0.86953,-0.37276 -1.615,-0.37276 -2.2362,0 -0.62115,0.12437 -1.3667,0 -1.8634,-0.62115 v -0.37275 -0.37276 l -0.49713,-3.8512 v -1.1179 l 0.37276,-0.9939 c 0,-0.86988 0,-1.3666 -0.24839,-2.1122 -0.12437,-0.49678 0,-1.1179 0.62115,-1.615 l -0.37276,-0.9939 0.12437,-0.9939 v -0.24838 l 0.24839,-0.9939 c 0.12437,-0.24839 0.12437,-0.62114 -0.24839,-0.9939 l -0.37276,-1.1179 -0.12437,-0.49713 0.37276,-0.74516 0.37276,-4.4727 v -0.12402 -0.24874 l 0.12437,-2.9813 c 0.12401,-0.37275 0.12401,-0.62114 0.12401,-0.9939 v -0.24874 l -0.12401,-0.12401 0.3724,-0.86988 -0.24839,-2.1118 0.24839,-1.9878 c 0.12437,-0.37276 0.49712,-0.49677 0.74551,-0.49677 0.37276,0 0.74551,0 0.9939,-0.24874 l 5.5906,0.24874 2.8573,0.62114 h 0.12437 l 3.2301,1.8634 1.4907,1.4907 1.615,2.8577 z"
       class="fil10"
       style="fill:url(#id3)"
       inkscape:connector-curvature="0" />
    <path
       id="_58360592"
       d="m -302.3,429.47 c -0.74515,0.24838 -1.2423,0.24838 -1.8634,0 l -1.4907,0.37275 h -1.491 c -0.49677,0 -0.62114,0.12437 -0.49677,0.49678 l -0.37275,0.86988 v 0.74515 l 0.37275,0.6215 h 0.24839 l -0.24839,0.12402 4.5967,0.49712 1.615,1.8634 0.49678,1.3666 0.37275,0.12402 1.3667,1.491 v 0.12402 l -0.24839,0.49712 -0.24874,0.86953 -0.24839,0.37276 -0.12437,0.49677 0.12437,0.86988 0.74552,0.74551 0.12401,0.74516 v 0.49712 0.12402 0.24874 l -0.12401,0.12402 -0.37276,1.491 0.37276,1.4907 0.12401,0.74551 c 0.12437,0.49677 0.12437,1.1179 0,1.7391 l 0.62114,5.715 v 0.24838 l 0.24874,0.62114 v 0.12437 l -0.49712,3.1057 v 0.12437 l 0.24838,0.86953 v 0.49713 l -0.24838,1.615 v 0.49677 l 0.12437,0.74551 0.99389,3.3541 c 0.49678,0.6215 0.62115,1.2426 0.62115,1.9878 l -0.12437,6.7089 c 0.37275,1.1179 0.37275,2.3602 0.12437,3.4785 l 0.24838,1.7394 c 0.12437,0.62114 0,1.1179 -0.24838,1.4907 l -0.12437,1.8634 0.37275,5.5906 -0.24838,1.8634 0.24838,0.9939 c 0.12437,0.49712 0,0.9939 0,1.491 v 0.74516 l -0.86953,2.9817 c 0,0.86988 0.12402,1.7394 0.62115,2.4849 v 0.37276 l -0.24839,1.3663 -0.24874,0.12437 0.24874,1.4907 0.12402,0.37275 0.12437,0.37276 v -0.24839 c 0.24838,0.86953 0.24838,1.7391 0,2.6089 l -0.62115,2.9817 v 2.8573 c 0.12402,0.86952 -0.12437,1.8634 -0.49712,2.4846 -0.12402,1.1183 0,2.4849 0.37275,3.8512 0.24839,1.3667 0.49713,2.4849 0.49713,3.8512 -0.24874,1.1183 -0.74551,2.3606 -1.9878,3.3544 -0.37276,0.86953 -0.24839,1.491 0.24838,2.2362 l 0.74551,-0.24838 0.49677,0.24838 c 0,0.49713 0.12437,0.62115 0.49713,0.74552 l 0.24839,0.86952 -1.1183,1.1183 c -0.37276,0.62114 -0.86953,0.74551 -1.4907,0.62114 l -0.12437,0.49677 0.12437,0.49713 c -0.12437,0.74551 0,1.4907 0.37276,2.1118 0.49677,0.49713 0.49677,1.3667 0.24838,2.2365 l -1.615,1.9874 c -0.24838,0.62149 -0.49677,1.3666 -1.2423,1.8638 l -2.6089,1.615 c -0.24838,0.24838 -0.37275,0.24838 -0.74551,0.24838 -0.12402,0.12437 -0.24839,0.12437 -0.62114,0.12437 l -0.62114,0.3724 -1.7394,0.24874 h -0.12402 l -0.49712,1.4907 v 0.24839 h -0.24839 v 0.86988 l 1.615,0.24839 -1.615,0.24838 3.3544,0.49713 22.983,0.24839 0.99389,0.37275 h 0.9939 l 3.1057,-0.37275 29.444,0.49677 c 0.49677,-0.12402 0.86953,-0.62114 0.9939,-1.1179 l 0.99389,-2.3606 c 0.49678,-0.62114 0.62115,-1.4907 0.49678,-2.3606 l 1.4907,-5.2179 -0.24838,0.86988 1.7394,-6.3361 0.74551,-1.4907 v -0.74551 l 0.3724,-0.12437 h 3.1061 l 0.37276,0.37275 3.3541,0.12437 9.6906,-0.62114 0.86952,-0.37276 0.9939,-0.37275 0.86953,-0.12437 h 0.62114 c 0.49713,-0.12402 0.9939,-0.49677 1.491,-0.74516 l 1.7391,-0.49713 0.9939,-0.49677 0.74551,-0.49712 3.8512,-1.615 c 0.74551,-0.37276 1.615,-0.86953 2.2362,-1.3667 l 1.1183,-1.3663 c 0.74551,0 1.3666,-0.24875 1.8634,-0.9939 l 3.2301,-3.3544 c 0.37276,-0.62114 0.86988,-0.9939 1.491,-1.1179 l 1.739,-2.4849 1.1183,-3.1057 0.49677,-0.49713 0.9939,-1.3666 0.12437,-0.74516 1.2423,-1.2423 c 0,-1.1183 0.12437,-1.9878 0.62114,-2.8577 0.49713,-0.74516 0.74551,-1.8634 0.49713,-2.9813 l 0.49677,-1.1183 0.86953,-3.8512 v -2.2362 -0.49713 -0.49677 l 0.12437,-1.1183 c -0.12437,-0.74551 -0.12437,-1.3666 -0.49677,-2.1118 l -0.12437,-0.99389 v -0.9939 c 0.12437,-2.4849 0,-4.7211 -0.86953,-6.7089 l -0.62114,-2.3602 c -0.12437,-0.74551 -0.49713,-1.491 -1.2426,-1.9878 -0.24839,-1.615 -0.74516,-3.1061 -1.9878,-4.3484 -0.99354,-2.3606 -2.3602,-4.348 -4.0996,-6.3358 l -0.74551,-0.86988 -8.6963,-7.2057 c -0.62114,-0.49677 -1.4907,-0.86952 -2.1118,-0.86952 l -2.1122,-0.62115 c -0.49677,-0.49677 -0.9939,-0.62114 -1.4907,-0.49677 l -1.9878,-0.86988 c -0.12437,0 -0.49713,0 -0.62115,-0.12402 l -0.74551,-0.49712 -5.2179,-1.3666 -9.1935,-0.12402 -1.3663,0.12402 h -1.491 l -8.1996,1.3666 -1.9878,0.86988 -2.1118,0.49677 -4.9695,2.4846 c -0.49677,0.62114 -1.4907,1.1183 -2.4846,1.615 l -1.9878,0.9939 c -0.49677,0.37275 -0.9939,0.74551 -1.8634,0.74551 l -0.9939,0.86953 -0.49712,1.2426 c -0.12402,0.3724 -0.49677,0.74516 -0.9939,0.86953 l -1.1179,0.37276 -0.86988,0.74515 0.24874,1.1183 c 0,0.24839 0,0.62114 -0.12437,0.9939 l -1.1179,-0.24839 v 0.86953 c -0.49712,1.3666 -1.2426,2.7333 -1.9878,3.7272 -1.1183,1.1179 -1.7394,2.3602 -2.1122,3.6025 0,0.86988 -0.24838,1.8638 -0.74551,2.7333 0,0.62115 0,1.3667 -0.24839,1.9878 l -0.62114,0.9939 -0.12437,0.24838 v 0.12437 0.12402 l -0.24838,0.24874 v 0.62114 0.62114 l -0.12402,0.37276 v 0.74516 l -0.24874,0.62114 v 0.12437 l 0.24874,3.2301 -0.24874,0.49712 0.37276,3.4785 -0.12402,0.49677 -0.24874,1.491 v 0.74516 l 0.37276,1.491 v 0.49677 l 0.24838,1.1183 1.9878,6.0874 c 0.49712,1.8634 1.2426,3.7272 2.3606,5.3422 l 0.49712,0.9939 1.1179,1.8634 v 0.12437 l 6.0874,6.9569 c 2.1122,2.1122 4.5967,3.8512 7.33,5.2179 0.9939,0.12437 2.1118,0.62115 3.3544,1.491 0.9939,0.49677 2.3602,0.74515 3.4785,1.1179 l 2.733,1.2423 c -0.24839,1.2423 -0.99355,2.6089 -1.9874,3.8512 l -3.1061,3.3544 c -0.9939,1.1183 -2.3606,1.9878 -3.6028,2.2362 l -4.224,0.86989 c -0.9939,0.74515 -1.8634,0.99389 -2.4846,1.2423 l -8.448,-0.86988 c -0.49713,0.12437 -0.74551,0.37275 -0.74551,0.86988 l -0.74551,0.74516 c -1.3663,-1.2423 -2.9813,-1.615 -4.8451,-1.2423 l -5.3419,-0.49677 -1.3666,-4.5967 v -0.12437 l -0.12437,-0.37276 0.12437,-0.3724 v 0.74516 c 0,-0.74516 0.12437,-1.2423 0.86952,-1.7391 0.37276,-0.49712 0.86988,-1.1183 0.9939,-1.8638 l -1.3666,-6.7086 -0.12402,-0.24838 -0.37275,-1.3667 0.37275,0.12437 h 0.12402 c 0.24874,-0.49712 0.37275,-1.1183 0.37275,-1.615 v -1.7394 -0.49712 l -0.12401,-0.24839 -0.37276,-0.24838 v 0.24838 c 0,0.12437 0,0.49713 -0.24838,0.62114 l -0.24874,-0.99389 -0.37276,-1.3663 0.37276,-2.4849 v -2.4846 -0.74551 -1.4907 l 0.49712,5.0935 v -0.37275 -5.0935 l -0.49712,-1.9878 0.12437,-26.089 c 0,-0.86953 0,-1.7391 -0.49713,-2.3602 l 0.49713,-4.7211 -0.49713,-4.4724 c 0.37276,-0.74551 0.49713,-1.3666 0.49713,-2.2362 0,-0.62114 -0.12437,-1.491 -0.49713,-1.9878 0.49713,-0.9939 0.6215,-1.9878 0.37276,-2.9817 -0.37276,-0.9939 -0.24839,-1.8634 0.24874,-2.8573 -0.24874,-2.3606 -0.24874,-4.7211 -0.12437,-7.2057 l 0.37275,-7.0813 0.49677,-1.491 0.37276,-2.6089 0.74551,-2.6089 0.74551,-1.1179 0.99355,-0.99389 c 0.62149,-1.2423 1.491,-1.8634 2.6089,-1.9878 l 2.6089,-1.2423 h 1.7394 l 0.37276,-0.12437 h 0.74551 l 0.99389,-0.37276 h 0.62115 c 0.49677,0.24874 0.99389,0 1.3663,-0.37276 l -0.49678,-0.12401 0.24839,-1.1183 -0.12402,-1.2423 -4.7211,-0.12437 -10.56,0.86988 h -2.1122 l -1.4907,0.12402 -15.157,-0.86953 z m 77.771,31.68 1.491,0.9939 4.348,3.6028 2.2362,2.4846 0.37276,0.12401 c 0.74551,0.9939 1.2423,1.9878 1.7394,3.2304 0.74516,0.99354 1.3666,2.3602 1.8634,3.6025 l 1.8634,3.8516 0.9939,3.7268 c 0.62114,1.2423 0.86988,2.4849 0.62114,3.9756 0.62114,0.74551 0.74551,1.615 0.74551,2.6089 -0.12437,0.9939 -0.12437,1.8634 0.12437,2.6089 0.37276,0.37275 0.37276,0.86952 0.37276,1.2423 l -0.37276,1.2423 c -0.12437,0.62114 -0.12437,1.1183 0.24839,1.615 0.12437,0.24874 0,0.74551 0,1.1183 l -0.24839,1.3666 c -0.49712,0.49678 -0.62114,1.1179 -0.49712,1.615 0.37275,0.74516 0.37275,1.3663 0.37275,2.1118 l -0.37275,1.2423 c 0,0.37275 -0.12402,0.86988 -0.62115,0.9939 l -0.74551,3.2301 -0.9939,1.1183 c -0.24838,0.62114 -0.49677,1.1179 -0.49677,1.7394 -0.62114,1.4907 -1.615,2.9813 -2.8573,4.348 -1.1183,1.491 -2.4849,2.4849 -3.9756,3.4785 -1.3666,1.2426 -2.7333,2.2365 -3.9756,2.7333 l -4.7208,1.3666 c -0.37276,0.24838 -0.86988,0.49677 -1.491,0.49677 l -5.2179,0.12437 -3.3541,-0.37276 -1.9878,-0.49677 -1.9878,0.24839 -2.1122,-0.49713 -0.49677,-0.49677 -0.74551,-0.24838 -1.615,-1.615 c -0.62114,-0.49713 -1.1179,-0.86989 -1.9878,-0.9939 l -0.62114,-0.9939 -0.9939,-0.24839 -0.99389,-0.12437 c -0.49677,-0.37275 -0.74516,-0.99389 -0.74516,-1.7394 0.24839,-0.49678 -0.24874,-0.9939 -0.9939,-1.1179 l -2.1122,-2.7333 -4.7208,-7.9508 0.12401,-0.37276 v -0.62114 l -0.12401,-0.74551 -1.2423,-1.8634 -0.12437,-0.49712 0.12437,-0.49677 0.24839,-0.24874 v -0.24839 c 0,-0.49677 -0.24839,-0.9939 -0.37276,-1.3666 -0.37275,-0.49678 -0.49712,-0.74516 -0.37275,-1.2423 v -0.24838 l -0.12437,-0.12437 -0.86953,-2.733 c -0.12401,-0.49712 0,-0.99389 0.37276,-1.615 -0.12437,-0.74551 -0.37276,-1.491 -0.62114,-2.2362 -0.49713,-0.74551 -0.49713,-1.491 -0.24839,-2.3606 0.49677,-0.9939 0.49677,-1.9878 0,-2.7333 l 0.24839,-1.615 c 0.12437,-0.49678 0.12437,-0.74516 0.12437,-1.2423 l 0.86952,-1.7394 c 0.12402,-0.62114 0.12402,-1.1179 0.12402,-1.9874 0.49712,-0.86988 0.86988,-1.7394 0.49712,-2.7333 0.49678,-0.49677 0.86953,-1.1183 0.9939,-1.7394 0.24839,-0.86953 0.74551,-1.615 1.2423,-2.1118 0,-0.24838 0,-0.74551 0.24838,-1.1183 l 0.49713,-0.49678 0.9939,-1.3666 0.24838,-0.12437 0.37276,-0.86953 1.2423,-1.7394 1.2423,-0.24838 v -0.24839 l 0.24839,-0.9939 0.62114,-0.24838 1.6154,-0.74551 1.615,-1.3667 c 1.2423,-0.62114 2.2362,-0.99389 3.3541,-1.2423 l 1.1183,-0.49677 c 0.24838,0 0.62114,-0.24874 1.1179,-0.37276 h 0.37276 l 0.99389,-0.12437 0.9939,-0.37275 h 0.37276 l 4.3483,-0.49677 h 1.4907 l 5.2179,0.99389 5.4663,1.9878 z m -71.311,1.3663 0.24874,-3.7268 0.24839,5.0935 -0.49713,-1.3666 z m 12.796,46.215 -0.49677,-1.8634 0.24838,-3.3544 0.24839,5.2179 z"
       class="fil11"
       style="fill:url(#id7)"
       inkscape:connector-curvature="0" />
    <path
       id="_58850360"
       d="m 272.3,472.16 -3.3938,0.62858 -4.022,0 -8.296,-0.75437 c -0.37701,-0.37701 -0.75401,-0.37701 -1.2568,-0.37701 H 254.2 l -1.8854,0.37701 c -0.12543,-0.37701 -0.5028,-0.37701 -0.62823,-0.37701 l -0.88016,0.37701 -1.0052,0.12579 h -1.0056 l -0.75437,0.12578 -0.5028,-0.12578 -1.6338,0.37701 -1.7596,0.12578 -5.1537,2.891 -3.1422,2.2624 c -0.62858,0.25157 -1.1314,0.75437 -1.5084,1.2572 l -0.5028,1.8854 h -0.62823 l -0.37736,-0.62859 c -0.62823,0 -1.0056,0.37701 -1.131,0.62859 l -2.137,2.3882 c -0.5028,0.50279 -0.62823,1.0056 -0.5028,1.508 -0.50279,0.88016 -0.62823,1.5084 -0.62823,2.514 -0.12578,0.87981 -0.50279,1.6342 -1.1314,2.2624 v 1.0056 c 0,0.37736 0.25122,0.50279 0.62858,0.62858 l -0.37736,1.1314 c -0.12544,0.25122 -0.12544,0.75401 0.25157,1.2568 0.25122,0.37701 0.25122,0.8798 0,1.3826 -0.25157,0.377 -0.25157,0.75401 0.12579,1.2568 0.62823,0.75437 0.8798,2.0112 0.62823,3.1426 0,0.50279 0,0.8798 0.37736,1.2568 l 1.0052,0.62858 c 0.12578,0.12579 0.37736,0.5028 0.12578,1.0056 l 1.7596,2.2624 c 0.50279,0.62859 1.1314,1.2568 2.0112,1.6338 l 0.12579,0.37736 h -0.12579 l 0.5028,0.5028 1.0056,0.8798 1.5084,0.75402 0.5028,0.25157 c 0.8798,1.0056 1.8854,1.6338 2.891,2.0108 l 1.3826,0.50279 2.0112,1.3826 c 0.75402,0.5028 1.3826,1.0056 2.3882,1.1314 0.8798,0.25158 1.508,0.75402 2.3882,1.2568 0.50244,0.25158 1.0052,0.5028 1.7596,0.75437 l 1.7596,0.75402 4.3994,2.137 1.2568,0.8798 0.37701,0.37701 c 0.5028,-0.25122 1.0056,0.12579 1.5084,0.62858 l 1.0056,1.3826 h 0.37701 l 1.0056,0.62858 0.62858,1.2568 c 0.8798,0.25122 1.1314,1.0056 1.5084,1.8854 0.12544,0.62858 0.5028,1.2568 1.0056,2.0112 v 0.50279 l 0.5028,3.5192 -1.0056,1.76 c -0.5028,0.62822 -0.62858,1.2568 -0.5028,2.0108 l -0.62858,1.0056 -0.50279,1.0056 c -0.5028,1.3826 -1.0056,2.3882 -1.7596,2.891 -0.5028,0.50279 -1.1314,0.62858 -1.8854,0.62858 l -1.76,0.37701 c -0.87981,0.12579 -1.8854,0.50279 -2.6394,0.8798 l -2.0112,1.5084 c -0.62823,-0.37701 -1.5084,-0.62859 -2.891,-0.87981 l -3.5192,-0.12578 -0.5028,-0.37701 h -0.75437 l -3.3934,-0.5028 -0.62859,-0.50279 c -1.8854,-0.12579 -3.7708,-0.62858 -5.2792,-1.5084 l -1.1314,-0.75401 c -0.50279,-0.25158 -1.0056,-0.62859 -1.3826,-0.75437 -1.131,-0.5028 -2.0108,-1.3826 -2.5136,-2.5136 l -2.2628,-3.1426 c -0.25122,-0.62859 -0.62823,-1.3826 -0.5028,-2.3882 0,-0.75402 -0.12543,-1.6338 -0.50279,-2.514 -0.25122,-0.50244 -0.25122,-1.0052 -0.12544,-1.3826 0.12544,-0.50279 0.12544,-1.0056 0,-1.6338 l -0.12578,-1.0056 -0.37701,-1.0056 -0.5028,0.12579 v -0.12579 c -0.75437,0 -1.2572,0.12579 -1.3826,0.5028 l -0.12578,0.12578 -0.37701,1.8854 -0.12579,0.62823 v 1.76 l 0.12579,0.62823 -0.12579,6.4106 0.5028,3.268 v 0.8798 l 0.62858,2.3882 c 0,0.75437 0.12543,1.6342 0.37701,2.514 v 0.12578 l 0.12579,0.25123 c 0.50279,0.50279 0.8798,0.62858 1.508,0.75401 l 10.307,3.1426 c 0.75402,0.12579 1.2568,0.12579 1.7596,0 0.50279,-0.37701 0.62858,-0.75437 0.62858,-1.0056 l -1.0056,-0.25158 -0.75437,-0.50244 c 0,-0.37736 0.25158,-0.50279 0.5028,-0.50279 l 0.75437,-0.37736 2.3882,0.50279 c 0.8798,0.25158 1.3826,0.5028 2.0112,1.1314 v 0.50279 l -0.25158,0.25123 -0.37701,0.50279 v 0.37736 l 0.5028,0.50244 7.6674,0.12579 8.7984,-1.2568 5.028,-2.137 c 0.75402,-0.50279 1.2568,-0.75401 1.8854,-1.131 l 3.5192,-2.891 2.891,-3.268 1.0056,-2.137 0.37701,-1.0056 1.0056,-2.2624 0.37701,-1.6338 0.62858,-2.2628 -0.25157,-3.645 v -0.25158 l -0.50245,-3.5192 c -0.25157,-1.2568 -0.50279,-2.2624 -1.1314,-3.0168 l -1.5084,-2.891 c -1.6338,-2.2624 -3.645,-3.8962 -5.9074,-5.4046 -2.137,-1.6342 -4.3994,-2.891 -6.5363,-3.8966 l -7.29,-3.268 -2.2628,-0.8798 -5.4046,-3.3938 c -1.8854,-1.0056 -3.3938,-2.514 -4.9022,-4.3994 0,-0.62859 -0.37701,-1.3826 -0.75401,-1.8854 l -0.25158,-1.0056 -0.8798,-4.1478 0.12579,-0.37701 0.50279,-1.5084 c 0,-0.8798 0.37701,-1.3826 1.0056,-1.7596 v -0.12579 l 0.37701,-0.25158 1.8854,-2.2624 2.7652,-1.8854 0.5028,-0.25122 0.25122,0.25122 h 0.25157 l 0.62858,-0.37701 1.508,-0.12579 c 0.25157,-0.377 0.75437,-0.50279 1.0056,-0.75401 l 2.3882,0.25122 2.3882,-0.37701 c 0.37701,-0.12579 0.87981,-0.12579 1.1314,0 l 0.37701,0.12579 h 0.25157 0.75402 l 1.5084,0.25122 1.2568,0.25157 c 1.1314,0.25122 2.137,0.75402 3.0168,1.3826 l 1.0056,0.75402 1.8854,1.6342 1.0056,1.131 2.0108,4.2736 0.25158,0.75437 0.12578,1.6338 v 0.12578 l 0.37701,1.2568 v 0.50279 c -0.25157,0.62858 0,1.1314 0.25122,1.6342 h 1.3826 c 0.50279,0.25122 0.8798,-0.12578 1.2572,-0.50279 l 0.12544,-6.4106 c -0.12544,-1.8854 0,-3.7708 0.37736,-5.4046 -0.25157,-1.7596 0,-3.268 0.25122,-4.5252 l 0.25158,-1.131 v -3.5196 l -1.0056,-0.50279 v 0.12578 l -0.37736,-0.12578 h -0.37701 z"
       class="fil12"
       style="fill:url(#id9)"
       inkscape:connector-curvature="0" />
    <path
       id="_58772120"
       d="m 202.9,471.93 -3.9359,0 -0.46842,0.28098 c -0.28134,-0.0939 -0.37488,0 -0.46843,0.28098 l -1.968,0.0939 -2.7177,0.65587 c -0.56197,0 -0.93685,0 -1.0307,0.28098 l -1.0308,0.37488 c -0.37488,-0.56232 -0.74941,-0.65586 -1.1243,-0.37488 l -1.0308,0.84366 -1.2182,0.0935 -2.7177,2.9048 -2.155,1.5931 c -0.0939,0.18744 -0.18744,0.56232 -0.18744,1.1246 -0.18744,0.37488 -0.28134,0.65586 -0.65586,0.65586 l -1.0311,0.0935 c -0.0935,0.0939 -0.28098,0 -0.37452,-0.0935 l -0.0939,-0.28098 c -0.28099,0 -0.65587,0.28098 -1.0308,0.74941 l -3.6546,5.4351 c -0.56232,1.0307 -0.9372,2.0615 -0.9372,3.1861 -0.37453,0.37488 -0.46843,0.84331 -0.46843,1.4992 l -0.28098,1.4992 v -0.28099 l -0.0939,0.37488 -0.28098,0.65587 c -0.18744,0.65587 -0.37488,1.3121 -0.37488,2.0615 v 0.0939 c -0.0935,1.0308 -0.0935,2.0615 0,2.9987 -0.0935,0.65587 -0.0935,1.3117 0,2.0615 0,0.65587 0,1.4056 -0.18745,2.0615 l 0.18745,0.8433 0.28098,2.5299 0.28134,0.28134 v 0.0935 c 0,0.0939 0,0.28133 0.18744,0.37488 l 0.56232,1.3121 c -0.18744,0.46843 0,0.74941 0.0935,1.1243 l 1.6866,4.0294 2.9987,4.4979 c 1.1246,1.5931 2.5303,2.8113 4.123,3.6546 1.0308,1.2182 2.1554,1.968 3.4671,2.4364 1.2182,0.65587 2.5303,1.1246 3.7485,1.8741 l 2.8113,1.0308 1.4056,0.28134 0.46843,0.28098 2.3428,0.46878 1.6866,0.0935 3.842,0.28099 0.28099,0.0939 h 0.56232 l 1.3117,-0.0939 h 1.4995 l 0.28099,-0.28099 2.9987,-0.0935 0.28098,-0.28134 h 0.18744 l 0.65587,-0.0935 h 0.74976 l 2.1554,-0.56233 0.74941,-0.0939 0.65622,-0.0936 0.28098,-0.18744 1.1246,-0.37488 0.65586,-0.0935 0.74977,-0.0939 0.18708,-0.28098 0.56232,-0.0939 0.74977,-0.37453 0.0935,-0.18744 -0.0935,-1.0308 v -0.18744 l -0.0939,-1.8744 0.0939,-0.65587 c -0.28099,-0.7494 -0.28099,-1.4056 -0.28099,-2.0615 v -0.0935 c 0.18709,-0.74977 0,-1.4995 -0.28133,-2.1554 -0.0936,-0.37488 -0.0936,-0.65586 0.18744,-0.84331 v -5.4351 l 0.28098,-0.18745 0.0939,-3.6546 0.37488,-0.65587 c 0,-0.9372 0.0935,-1.7805 0.65587,-2.3428 l 0.37488,-1.1243 h 0.0935 v -1.2182 -0.37489 h -4.123 l -0.84331,-0.18744 h -0.74976 l -1.3117,0.18744 h -1.3121 l -0.65587,0.18745 c -0.18744,-0.18745 -0.46842,0 -0.74976,0.18744 l -4.0294,-0.56233 -5.4347,0.18744 c -0.28134,0 -0.37489,0.18745 -0.46878,0.56233 v 0.0935 h -0.18744 v 0.65587 l 0.65622,0.65622 h 2.9048 1.1246 l 1.874,0.8433 c 0.37488,0 0.65587,0.0935 0.93685,0.65587 l 0.37488,1.0308 c 0,0.18744 0.0939,0.56232 0.37488,0.56232 l 0.28099,0.18744 c 0.0939,0.0935 0.18744,0.37488 0.37488,0.56233 l 0.18744,0.93685 v 0.0939 l 0.18744,0.56197 v 0.37488 l 0.18744,2.2489 -0.18744,1.2182 -0.18744,3.9359 0.28134,0.65586 0.0935,0.28099 c 0.28099,0.46878 0.18744,0.9372 -0.18744,1.5931 v 0.37488 l 0.0939,0.37488 0.0935,1.0308 c 0,0.37488 0.46843,0.65586 1.0308,0.74976 l 0.65587,0.56197 v -0.18709 0.37453 l -0.0935,0.93721 c -0.18744,0.37488 0,0.56232 0.18745,0.9372 l -1.2182,0.46843 -0.74977,0.18744 -0.18744,0.18744 -0.18744,0.0935 h -2.155 l -3.561,-0.46842 -5.7161,-1.4056 -1.4992,-0.18744 -2.3428,-1.2182 -1.3117,-0.28099 -4.0294,-3.561 -0.93721,-1.3117 -0.93685,-1.3121 c -0.18744,-0.65587 -0.37488,-1.2182 -0.9372,-1.5931 -0.65587,-0.56197 -1.0308,-1.0308 -1.1246,-1.6866 -0.46842,-0.28098 -0.65587,-0.46842 -0.65587,-0.8433 l -0.0935,-1.0308 -0.0939,-0.56232 -0.28098,-0.93721 -0.65587,-1.4053 v -0.37489 -0.28133 l -0.46878,-2.8113 -0.56197,-1.2182 0.28099,-2.5299 c -0.28099,-0.56233 -0.37488,-1.1246 -0.37488,-1.7805 l 0.28098,-2.0615 v -0.93721 c 0,-0.37452 0,-0.74941 0.18744,-1.0307 -0.37453,-0.65587 -0.37453,-1.3117 0,-1.7802 l 0.46878,-1.7805 1.1243,-3.561 0.74977,-0.8433 0.0935,-1.1243 c 0.0939,-0.37488 0.37488,-0.65622 0.74976,-0.9372 l 0.93721,-1.5931 c 0.18744,-0.65587 0.74941,-1.0308 1.3117,-1.3117 l 1.2182,-0.74977 c 0.18744,-0.37488 0.56232,-0.65586 0.9372,-0.74976 0.56233,-0.65587 1.2182,-1.1243 1.9676,-1.4056 l 2.6238,-1.0308 h 0.65622 c 0.46843,-0.18744 0.93685,-0.37488 1.5927,-0.46842 l 2.1554,-0.46843 7.2156,0.0935 0.84331,0.28134 2.9048,0.56197 1.968,1.2182 c 0.46842,0 0.74941,0.18744 1.1243,0.46878 l 1.0308,0.65586 3.28,4.123 c -0.18745,0.56232 0,1.0308 0.0935,1.4995 l 0.28098,0.65587 -0.28098,2.5299 v 0.56232 l 0.74976,0.46843 1.1243,-0.28098 c 0.37489,0 0.74977,-0.18745 0.93721,-0.56233 0.0935,-0.65586 0.0935,-1.2182 -0.28134,-1.6866 v -0.46843 c 0,-0.37488 0.0939,-0.9372 0.65622,-1.2182 l -0.18744,-0.74976 -0.37488,-0.18744 -0.0939,-0.37488 v -0.28099 c -0.0935,-0.28133 0,-0.65622 0.0939,-0.9372 l 0.56232,-0.93721 c -0.37488,-0.28098 -0.56232,-0.65586 -0.37488,-0.93685 v -0.0939 l 0.18744,-0.93685 v -0.84331 l -0.0939,-0.0939 v -0.56232 l 0.28134,-0.37453 0.0935,-1.4056 0.37489,-1.5931 c 0,-0.65587 0,-1.1246 0.0935,-1.4995 v -0.28098 -0.0935 l -0.0935,-0.18744 v 0.18744 l -0.0935,-0.18744 v -0.0939 l -0.65622,-0.0936 -0.65586,0.0936 h -0.0936 l -0.46878,-0.28099 -1.7802,0.18744 -2.7177,-0.28134 -1.2182,-0.28098 -10.495,-0.37488 -0.74941,0.0939 h -0.65586 z"
       class="fil13"
       style="fill:url(#id8)"
       inkscape:connector-curvature="0" />
    <path
       id="_69785648"
       d="m 174.7,472.77 -2.3428,0 -1.4992,0.18744 -1.5931,0 -1.1246,0.18744 -5.1537,-0.56232 -4.4043,0.18744 c -0.28099,0.0936 -0.37488,0.37488 -0.28099,0.56197 v 0.74977 l 0.0935,0.37488 h -0.0935 l 0.28099,0.28098 h 0.37488 l 0.74976,0.28134 0.74941,0.0935 1.2182,0.65587 0.56233,0.37488 c 0.46878,0.37488 0.8433,0.84331 1.1246,1.687 l 0.37488,1.9676 0.28099,2.0615 v 0.0939 l 0.0935,0.28099 0.0939,0.46878 v 0.0935 c -0.0939,0.46842 -0.0939,0.65587 -0.0939,1.0308 l -0.0935,0.37488 c -0.18744,0.37488 -0.18744,0.9372 0.0935,1.4056 l 0.0939,0.28098 0.18744,0.46878 v 0.37453 l -0.18744,0.65622 c -0.0939,0.28098 -0.18744,0.46843 -0.18744,0.74941 v 0.28134 l 0.0935,0.37488 0.0939,0.65587 0.18744,0.37488 0.0935,-0.18744 v 0.65586 l -0.28098,0.84331 0.28098,3.7485 c 0.0939,0.46842 0.28134,0.8433 0.0939,1.3117 l -0.37488,1.4056 c 0.37488,0.56232 0.56232,1.1246 0.56232,1.874 -0.18744,0.84331 -0.18744,1.4056 0.0935,2.0615 0.28134,0.46878 0.28134,1.0308 0,1.4056 -0.28098,0.37488 -0.28098,0.84331 -0.28098,1.4056 0.46843,0.46878 0.56232,1.1246 0.46843,1.7805 -0.28099,0.56232 -0.28099,1.2182 -0.18745,1.8741 l 0.18745,1.968 c -0.18745,0.84331 0,1.4056 0.18744,2.1554 l -0.18744,0.37453 -0.56233,0.28134 -1.4992,-1.8741 -1.7805,-1.7805 -0.65587,0.37488 c -0.46842,-0.37488 -0.74976,-0.74976 -0.84331,-1.2182 l -0.0939,-1.5931 c -0.65587,-0.9372 -1.5931,-1.874 -2.5299,-2.6238 l -0.56233,-0.65586 -0.8433,-0.46878 c -0.18745,-0.65587 -0.37489,-1.3117 -1.0308,-1.7802 l -1.4995,-1.4995 h -0.74941 l -0.65587,0.37489 c -0.65622,0 -1.1246,-0.37489 -1.1246,-0.74977 v -2.9048 l -2.7174,-3.2797 c -1.1246,-1.1246 -1.8744,-2.1554 -2.6238,-3.4671 l -11.713,-16.399 c -0.37488,-0.37488 -0.74976,-0.46843 -1.4056,-0.46843 l -3.4671,0.46843 h -7.403 l -1.4053,-0.37488 -1.4995,0.0939 -1.0308,-0.18744 -1.1243,0.18744 c -0.37488,0 -0.65622,0.28099 -0.65622,0.65587 v 1.1243 l 0.28134,0.18744 0.0935,0.0939 h 0.18745 0.37488 c 1.4992,0 2.7174,0.28098 4.123,0.74941 1.0308,0.37488 1.874,0.84366 2.8113,1.5931 l 0.65587,0.65622 0.18744,0.28099 -0.0935,0.28098 -0.28134,0.84331 -0.0935,0.0939 v 0.56233 0.37488 l 0.28099,0.46842 v 1.1243 l 0.18744,1.2182 v 0.74977 h -0.0935 v 1.5931 0.0935 l 0.28099,0.93721 -0.18744,5.0602 0.28133,1.8741 v -0.0935 l 0.0935,0.46842 -0.0935,-0.37488 0.0935,5.5286 v 0.28134 l -0.0935,0.37488 v 0.28099 l 0.28099,0.74976 -0.18744,2.4364 c -0.18744,0.37488 -0.0935,0.8433 0.18744,1.3117 0.18744,0.56232 0.18744,0.9372 0,1.5931 l 0.18744,0.93721 c 0,0.37452 0,0.7494 -0.0939,1.2182 l -0.0935,0.74941 v 0.74977 c 0.18744,0.37488 0.18744,0.74976 0.18744,1.4056 l -0.18744,1.2182 c 0.37488,0.65586 0.46842,1.4056 0.46842,2.1554 l -0.37488,2.5299 -0.0935,0.28099 v 0.37488 c -0.37488,0.46878 -0.37488,0.9372 -0.18744,1.5931 0,0.56232 -0.0935,1.1246 -0.37488,1.4992 -0.0935,0.74977 -0.46843,1.4056 -0.84331,1.968 l -1.4992,1.4995 c -0.65622,0 -1.1246,0.28099 -1.5931,0.65587 -0.46843,0.18744 -1.1246,0.46842 -1.5931,0.46842 l -0.65586,0.74977 -0.28134,0.65586 v 0.0936 l 0.18744,0.56232 0.37488,0.0939 3.3736,-0.28134 0.18744,-0.0935 h 1.1243 l 1.968,-0.28134 h 1.968 l 0.56197,0.28134 h 0.74977 l 1.0307,-0.28134 h 0.37489 l 0.9372,0.37488 1.4056,-0.0935 1.3117,0.0935 h 2.1554 0.74941 0.28133 c 0.28099,0.18744 0.46843,0 0.65587,-0.37488 l 0.0935,-1.0308 -0.37452,-0.56197 c -1.1246,0 -2.1554,-0.28134 -2.9052,-0.65622 l -2.4364,-1.8741 -0.93685,-3.4671 c -0.28134,-1.2182 -0.28134,-2.3425 -0.18744,-3.6546 l -0.0939,-1.4056 0.0939,-1.4992 -0.37488,-4.1234 0.18744,-1.2182 V 507.254 l -0.18744,-0.93721 v -1.2182 l 0.18744,-1.874 -0.18744,-3.1861 c -0.37488,-0.93721 -0.18744,-1.7805 0,-2.6238 v -0.18744 l -0.0939,-0.84331 v -0.37488 l 0.0939,-0.93685 v -0.84366 l -0.37488,-1.6866 0.28098,-0.56232 v -0.28099 l 0.0939,-0.37488 c 0.18744,-0.56232 0.18744,-0.74976 -0.0939,-1.1243 l -0.0935,-1.1246 c 0.0935,-0.56232 0.0935,-0.9372 0,-1.3117 l -0.37489,-1.1246 c -0.18744,-0.74977 0,-1.3117 0.46843,-1.7805 0.46878,0 0.84366,0.0939 0.84366,0.46877 l 0.28099,0.37453 0.0935,0.65622 c 0.18744,0.37453 0.37488,0.56197 0.9372,0.74941 0,0.74977 0.28099,1.3121 1.0308,1.687 0.56232,0.37453 1.1246,0.84331 1.4992,1.4056 0.46878,0.46843 0.84367,0.93685 1.1246,1.5927 0.0935,0.56232 0.65587,1.0308 1.2182,1.4056 l 0.9372,1.3121 c 0.46843,0.56233 1.0308,1.2182 1.4056,1.8741 l 0.46843,0.74976 3.1861,3.5607 c 0.84331,0.74977 1.4992,1.4995 1.9676,2.6238 0.65622,0.46843 1.3121,1.2182 1.687,2.0615 l 1.6866,2.0615 c 0.18744,0.65622 0.56232,1.2182 1.1243,1.5931 0.56233,0.37489 0.93721,0.84331 1.2182,1.4995 l 2.6238,2.5299 c 0.65622,1.4056 1.5931,2.5303 2.8113,3.2797 l 0.65587,1.0308 v 0.0939 0.0936 l 0.65622,0.56232 0.56197,0.74976 0.28133,0.0935 c 0.37489,0.18744 0.65587,0.56232 0.74977,1.0307 l 4.404,5.0602 c 0.18745,0.46878 0.56233,0.74977 0.93721,1.1246 l 0.37488,0.0935 0.84331,0.93721 2.155,0.37488 0.28134,-0.0939 h 1.1243 l 1.4056,-0.56232 -0.0935,-0.65587 c 0.0935,-1.3117 0.0935,-2.6238 0,-4.0294 v -6.9342 l 0.0935,-0.46843 v -0.18744 l -0.0935,-0.46842 -0.46842,-4.4043 0.28098,-0.56233 v -1.4056 l -0.0939,-0.18744 v -0.65586 l -0.18709,-0.0935 0.18709,0.0935 v -0.84331 c 0,-0.28098 0,-0.37488 0.0939,-0.65587 l -0.28098,-8.7148 0.18709,-1.1246 v -0.28099 l -0.28099,-3.6546 -0.0935,-1.4056 c 0,-0.8433 0,-1.5931 0.0935,-2.4364 l 0.28099,-1.1246 v -4.4979 l 0.46878,-1.6866 c 0.18744,-0.37488 0.18744,-0.74976 0.37488,-1.1246 l 0.65586,-1.4053 0.28099,-0.37488 0.0939,-0.65622 c 0.0935,-0.18709 0.37488,-0.46843 0.65586,-0.56197 l 0.37488,-0.28134 0.84331,-0.74941 0.56232,-0.28134 h 0.56197 l 0.28134,-0.0935 h 1.0308 c 0.0935,-0.28134 0.28098,-0.28134 0.46842,-0.28134 l 0.18744,-0.0935 0.0939,-0.37488 0.0935,-0.56233 -0.0935,-0.74941 -2.4364,-0.18744 z"
       class="fil14"
       style="fill:url(#id10)"
       inkscape:connector-curvature="0" />
    <path
       id="_58847072"
       d="m 160.83,507.82 0,-0.46842 -0.28098,-0.28099 c -0.37489,0.28099 -0.46843,0.56197 -0.46843,0.93685 l 0.37453,0.28134 0.28134,-0.18744 0.0935,-0.28134 z"
       class="fil15"
       style="fill:url(#id5)"
       inkscape:connector-curvature="0" />
    <path
       id="_39474488"
       d="m 99.742,473.29 -0.9372,0.10311 -4.123,0.10276 -0.28134,0 0.0939,0 c 1.1243,0.20622 2.3425,0.6183 3.4671,1.4425 0.74941,0.51519 1.2182,2.1639 1.4992,4.8426 0.0939,2.6787 0.0939,5.6668 0,9.1697 l -0.74976,9.8911 v 1.5456 l -0.28098,0.41209 v 0.6183 c -0.09354,0.20587 -0.28098,0.41209 -0.09354,0.72107 0.18744,0.30933 0.18744,0.72141 0.09354,1.0304 -0.37488,0.41209 -0.37488,0.61831 -0.09354,1.0304 0.18744,0.30898 0.37453,0.61796 0.46842,1.1332 -0.28098,0.5152 -0.28098,1.2366 -0.0939,1.9577 0.18744,0.5152 0.18744,1.1335 0.0939,1.8546 l -0.46842,1.0304 c 0.18744,0.61831 0.18744,1.2363 0,1.9577 l -0.56232,1.9577 0.56232,1.2363 0.74941,1.1335 0.0939,0.92728 c 0,0.30898 0,0.61796 -0.28134,1.03 0.37488,0.5152 0.56232,1.2366 0.37488,1.7518 l -0.18744,1.9573 -1.8741,-0.20587 -0.28098,0.61831 -0.0939,0.82417 -0.56232,0.72106 -0.74941,0.41209 -2.2489,0.72142 -0.74976,-0.10311 c -0.18744,0.20622 -0.28098,0.20622 -0.56232,0.20622 l -0.56232,0.82417 v 0.72106 c 0.0939,0.10311 0.18744,0.30933 0.18744,0.61831 0.18744,0.10311 0.28134,0.10311 0.37488,0.10311 l 4.3104,-0.10311 c 0.74976,0.10311 1.687,0.10311 2.5303,0 l 1.8741,-0.20622 0.65586,0.20622 1.4056,-0.30898 h 0.37488 l 1.0308,0.30898 2.7177,-0.30898 5.997,0.30898 0.46842,0.10311 h 0.18744 l 0.46878,-0.10311 c 0.37488,-0.20622 0.65587,-0.30898 0.46843,-0.72142 -0.0935,-0.41208 0,-0.72106 0.28098,-1.1332 -0.37453,-0.30897 -0.65587,-0.30897 -1.0308,-0.30897 h -0.8433 l -2.5299,-0.92729 c -0.74976,-0.41244 -1.4056,-1.1335 -1.7805,-1.9577 l -0.74976,-2.885 c -0.28099,-2.1636 -0.37488,-4.3274 -0.28099,-6.5941 v -6.5941 l -0.0939,-0.92729 c 0.18744,-0.82417 0.18744,-1.7514 0.18744,-2.7818 v -2.885 l -0.0935,-1.1332 0.28099,-14.115 0.37488,-1.6487 v -0.41209 l 0.46843,-2.2666 c 0.18744,-0.92728 0.56232,-1.9577 1.1246,-2.6787 l 0.37488,-0.82417 0.18744,-0.20622 0.46843,-0.30898 2.7174,-0.72142 h 0.0939 l 0.74976,-0.10311 0.0935,-0.30897 0.18744,-0.30898 0.18744,-1.3394 -14.15,0.10276 -0.93685,-0.20587 z"
       class="fil16"
       style="fill:url(#id1)"
       inkscape:connector-curvature="0" />
    <path
       id="_69785216"
       d="m 97.669,482.33 c 0.0939,0.46843 0.18744,0.93685 0.56232,1.3117 l 0.9372,1.2182 v 0.37489 0.37488 0.0935 l 0.74941,1.687 v 0.0935 l -0.09354,0.74977 0.09354,0.18744 c 0.28134,0.37488 0.46878,0.74941 0.37488,1.2182 l -0.0935,1.4056 0.0935,1.4056 v 1.1243 l 0.28098,1.1246 -0.28098,2.7174 0.37488,0.56232 0.0935,-5.9974 c 0,-3.0922 -0.0935,-5.4347 -0.46843,-7.4027 -0.28098,-1.968 -0.74976,-3.0922 -1.4992,-3.6546 l -2.9052,-1.874 c -0.74941,-0.46878 -1.4992,-0.74977 -2.2489,-0.65622 l -0.37488,0.65622 v 0.74941 l 0.18744,0.0939 0.9372,0.28099 c 0.37488,0 0.74976,0.0939 1.1246,0.56232 0.37453,0 0.84331,0.0935 1.1243,0.46843 l 1.0307,1.1246 z"
       class="fil17"
       style="fill:url(#linearGradient3312)"
       inkscape:connector-curvature="0" />
    <polygon
       id="_69788496"
       transform="matrix(3.5433071,0,0,3.5433071,-515.40071,106.23231)"
       class="fil18"
       points="173.84,111.33 173.84,111.48 173.84,111.38 173.84,111.22 "
       style="fill:url(#id2)" />
    <path
       id="_69809472"
       d="m 68.767,457.03 -1.1246,-0.28098 -3.1858,-0.65587 c -0.375,-0.18 -0.843,-0.37 -1.312,-0.37 l -1.6866,0.18744 c -0.28098,-0.18744 -0.46842,-0.37488 -0.84331,-0.37488 -0.37488,0 -0.65587,0.18744 -0.9372,0.37488 l -5.9035,-0.37488 -6.5594,0.37488 -2.8113,-0.18744 -11.339,0.74977 -2.0615,0.46842 c -0.74976,-0.18744 -1.4056,0.0935 -2.0615,0.46843 l -0.0939,0.37488 v 0.65586 l 0.46878,0.84331 2.3425,0.28134 1.4056,0.37488 c 0.74976,0.0935 1.4995,0.46843 2.2489,1.1243 l 1.0307,1.1246 0.18744,0.74941 0.18744,0.18744 v 0.0939 l 0.0939,0.0935 0.37453,0.9372 v -0.18744 l 0.0939,0.74977 0.18744,2.155 c -0.18744,0.8433 0,1.4056 0.37488,2.0615 l -0.18744,0.65622 0.18744,0.84331 c 0.09354,0.28098 0.28098,0.56232 0.28098,0.93685 l -0.18744,0.46878 v 0.0935 l -0.09354,0.56233 v 0.56232 1.0308 0.56232 0.74941 l -0.28134,0.65587 v 0.0939 l 0.28134,0.84331 v 2.7174 0.18744 l 0.09354,2.9052 -0.28098,3.5607 0.18744,1.7805 c 0.09354,1.7805 0.28098,3.6546 0,5.4351 l 0.09354,17.898 -0.09354,1.6866 -0.37488,4.2169 -0.56232,1.3117 -0.74976,1.5931 -1.4992,1.5931 c -0.37488,0.65587 -1.0307,1.0308 -1.7805,1.1246 -1.1243,0.74941 -2.2489,1.0308 -3.5607,1.0308 -0.46878,0.0935 -0.56232,0.37488 -0.74976,0.74941 v 1.4056 l 0.28098,0.0939 0.74976,0.28099 1.0307,-0.28099 h 5.5286 l 0.28134,-0.0939 h 0.37488 l 1.3117,-0.28099 h 0.18744 l 1.0307,-0.0935 h 4.3104 v 0.0935 l 6.5597,0.28099 0.28098,0.0939 4.4979,0.37488 0.74976,-0.0939 h 0.28098 l 0.37488,-0.37488 0.28098,-1.6866 -0.28098,-0.18744 H 56.0221 v -0.18744 l -0.74941,-0.0935 -0.65622,-0.0939 -1.8741,-0.56197 -5.5286,-0.37488 0.09354,-0.37488 h 0.0939 l 0.56232,-0.37489 0.09354,-0.0935 0.46843,-0.18744 0.84331,-0.46878 v -0.74941 l -0.37453,-1.4056 v -0.74976 -0.65587 l -0.28134,-1.1246 -0.65587,-1.4992 c 0.28098,-0.65586 0.28098,-1.3121 0.28098,-2.0615 v -1.968 c 0.0939,-0.65586 0,-1.0307 -0.28098,-1.4992 -0.09354,-1.3121 -0.09354,-2.5303 0,-3.842 0.28098,-1.1246 0.28098,-2.3428 0,-3.6546 l 0.28098,-1.2182 v -0.18744 l -0.28098,-1.4056 0.28098,-0.37489 0.74976,0.18744 2.9048,-0.18744 0.74976,0.18744 h 0.28098 l 0.18744,-0.18744 h 1.4056 l 7.2156,0.18744 h 0.28098 l 0.37488,0.0935 h 0.0939 l 0.18709,0.0939 0.56232,0.65586 c 0.56232,0.0939 0.65587,0.37488 0.74976,0.74977 l 0.18744,1.0307 c 0,0.28099 0.18744,0.46843 0.56232,0.74977 -0.0939,0.46842 -0.0939,1.0307 0.18744,1.6866 l 0.46842,1.1243 0.18744,0.37488 0.56232,0.46878 h 0.93685 l 2.9987,-0.74976 h 1.3117 c 0.46878,0.0935 0.84366,0.0935 1.3121,0 h 0.18744 0.09354 l 0.9372,0.46843 0.18744,0.28133 c 0.18744,0.37453 0.28098,0.65587 0.18744,1.0308 v -0.0939 l -0.18744,0.46843 v 0.28134 l -0.0939,0.0935 H 73.5454 l -0.56232,-0.74941 -0.37488,0.28099 -0.28098,0.46842 0.46842,0.37488 0.37488,0.0939 h 0.18744 c 0.18744,0.18744 0.18744,0.28099 0.18744,0.65587 l -0.0939,0.56232 v 0.0935 l -0.09354,0.28099 h -0.28134 l -0.28098,-0.18709 -0.18744,-0.56232 -0.37488,-0.65587 -0.28098,-0.28134 -0.46878,-0.37488 -0.37453,-0.37488 -0.84366,0.65622 -0.74941,0.18744 h -0.0939 l -0.46842,-0.56232 c -0.28098,-0.28134 -0.56232,-0.37488 -0.84331,-0.18744 l -0.18744,0.37488 0.18744,0.93685 v 0.84366 c 0.28098,0.74941 0.65587,1.3117 1.0307,1.4992 0.56232,0.28099 0.65587,0.56233 0.74976,0.93721 v 0.0935 l 0.18709,0.37488 0.74976,0.74977 0.65587,0.65586 0.0939,0.28099 0.09354,0.0939 -0.09354,0.56196 -0.0939,0.18745 v 0.28133 h 0.0939 l 0.09354,0.28099 0.74976,0.56232 c 0.28098,0.18744 0.56232,0.28099 0.74976,0.65587 l 0.18744,0.28098 -0.18744,1.0311 0.37488,0.56197 v 0.28134 l 0.46842,0.0935 0.18744,0.28134 0.28098,1.0308 0.37488,0.37453 0.28098,0.28134 v 0.0935 h 0.0939 v 0.0939 c -0.0939,0.37488 0.09354,0.93685 0.46842,1.2182 l 0.74976,0.74941 0.18744,0.18744 0.09354,0.74976 0.28134,0.65587 2.6238,4.0294 0.65587,1.0307 c 0.46842,0.46878 1.0307,1.0308 1.4056,1.687 l 0.84331,1.1243 0.28098,0.18744 0.28134,0.37489 c 0.56197,-0.0939 0.93685,0.18744 1.3117,0.65586 l 1.2182,1.3121 0.0939,0.46842 0.37453,0.28099 1.0307,0.0939 h 0.65622 0.18744 l 0.28098,-0.0939 v -0.18744 l -0.9372,-0.37488 1.2182,-0.0936 0.46878,0.0936 0.46842,0.28133 h 0.65587 l 0.74976,-0.0939 0.37488,0.0939 0.18744,0.0935 0.09354,0.28134 -0.37488,0.28098 v 0.84331 c 0.37488,0.37488 1.0307,0.65586 1.5931,0.65586 l 1.968,0.0939 v -0.37488 c -0.18744,-0.0935 -0.37488,-0.0935 -0.56232,-0.0935 l -0.37488,-0.65622 -0.56232,-0.46843 1.1246,-0.18744 c 0.09354,0.18744 0.09354,0.28134 0.09354,0.46843 l -0.09354,0.18744 0.09354,0.18744 c 0.74976,0.8433 1.4995,1.2182 2.4364,0.9372 l 5.9039,-1.2182 0.46843,-0.56232 0.18744,-0.46843 v -0.28133 l 0.0935,-0.84331 c -0.28098,-0.28099 -0.65586,-0.28099 -1.0308,-0.28099 h -1.1243 l -1.2182,-0.56232 -5.4351,-3.4671 -1.0307,-1.0308 c -0.37488,-0.37488 -0.74976,-0.37488 -1.3121,-0.0936 -0.37488,0.46843 -0.46842,1.1243 -0.37488,1.8741 l -1.2182,-1.4056 v -0.93721 c 0.0939,-0.28098 0.28134,-0.37488 0.46878,-0.56232 l 0.74941,-0.28098 c -0.18709,-0.56232 -0.74941,-1.3117 -1.4992,-2.2489 l -1.968,-2.1554 c 0,-0.37453 -0.18744,-0.84331 -0.56197,-1.1243 l -1.4995,-2.1554 c -0.46842,-0.18744 -0.65587,-0.65586 -0.46842,-1.2182 -1.0307,-1.1243 -1.7805,-2.4364 -2.3428,-3.842 l -1.2182,-1.8741 c -0.28098,-0.74976 -0.65587,-1.4992 -1.3117,-2.0615 l -1.2182,-2.0615 c -0.0939,-0.56232 -0.37488,-1.0308 -0.74976,-1.5931 -0.56232,-0.37488 -0.74941,-0.93721 -0.74941,-1.4992 l -1.4056,-2.3428 c -0.28134,-0.93721 -0.74976,-1.6866 -1.4995,-2.4364 -0.28098,-0.9372 -0.65587,-1.7805 -1.3117,-2.4364 l -1.8741,-3.0922 v -0.37488 -0.18744 l 0.37453,-0.37489 0.84366,-0.8433 c 0.28098,-0.18744 0.65587,-0.37488 1.0307,-0.37488 l 1.7802,-1.5931 c 0.65622,-0.46842 1.0307,-1.2182 1.3121,-1.874 l 1.2182,-1.4056 1.3117,-1.6866 0.74976,-1.3121 1.8741,-5.0602 0.74976,-4.4979 v -1.3117 c -0.0939,-0.74977 -0.0939,-1.4056 -0.37488,-2.0615 l -0.37488,-2.0615 -0.09354,-0.18744 -0.65587,-3.6546 v -0.0939 l -0.28134,-0.18744 -0.46842,0.18744 -0.28134,-0.18744 h -0.28098 l -0.37488,-0.46843 h -0.56232 c -0.28098,0 -0.56197,0.0935 -0.65587,0.37488 l 0.65587,0.93685 -0.28098,0.74977 -0.37488,0.46842 -0.37488,-0.37452 -0.28098,-0.46878 -0.28098,-0.28099 -0.18744,-0.56232 h -0.37488 l -1.4056,0.18744 c -0.28098,0 -0.37488,0.0935 -0.37488,0.28098 l 0.0939,0.0939 v 0.0935 l -0.0939,0.28134 -0.9372,-0.0939 -0.74941,0.0939 -0.65587,-0.37488 v -0.0939 l 0.28098,-0.65586 0.9372,-0.28099 0.09354,-0.28133 4.3104,-2.2489 0.37488,-0.65587 v -0.56232 -0.18744 l -0.09354,-0.0935 -3.3736,-2.8113 c -1.2182,-1.0307 -2.5299,-1.5931 -3.7481,-1.968 l -1.1246,-0.56197 -0.74976,-0.0939 c -0.18744,-0.0935 -0.28098,-0.28099 -0.65587,-0.28099 l -1.0307,-0.0939 z m -2.1554,6.6533 c 0.74976,0.56232 1.4056,1.3121 1.968,2.1554 1.1246,1.4056 1.8741,3.0922 2.6238,4.5914 l 0.46842,2.3428 c 0.28134,0.8433 0.37488,1.968 0.28134,3.4671 -0.28134,1.2182 -0.28134,1.968 0.09354,2.2489 l 0.65587,0.56232 0.46878,0.0935 -0.37488,0.28134 c -0.18744,0 -0.37488,0.0935 -0.46842,0.18744 l -0.37488,1.7802 c 0,0.65622 -0.28134,1.1246 -0.37488,1.4995 l 0.09354,0.93685 c -0.18744,0.37488 -0.37488,0.84331 -0.37488,1.4056 0,0.56232 -0.18709,0.93721 -0.46842,1.3121 -0.37488,0.28098 -0.37488,0.56197 -0.37488,0.84331 0.0939,0.37488 0.0939,0.56232 0,0.8433 l -0.93685,0.84331 -2.5303,3.2797 c -0.74941,0.84331 -1.7805,1.2182 -2.9048,1.3121 l -0.37488,0.28099 -0.46842,0.18744 -0.65587,0.37488 -0.74976,0.18744 -1.5931,0.74976 h -3.9356 l -2.7177,-0.0939 c -0.56232,-0.28099 -1.1243,-0.28099 -1.5931,0 l -1.7802,-0.28099 h -0.0939 l 0.0939,-0.18744 -1.0307,-0.37488 c -0.46878,0.18744 -0.74976,0 -0.74976,-0.37488 l -0.37488,-0.93721 v -8.3399 c -0.09354,-0.18744 -0.09354,-0.37453 0,-0.65587 0.09354,-0.28098 0.28098,-0.56232 0.28098,-0.93685 v -0.84366 c -0.37453,-0.74941 -0.56197,-1.4992 -0.37453,-2.2489 0.09354,-0.7494 0.09354,-1.5931 0.09354,-2.3425 l 0.37488,-1.2182 v -2.1554 l -0.28134,-0.28098 -0.18709,-1.1246 v -0.74941 l 0.09354,-0.65622 0.37488,-0.93685 -0.0939,-0.46878 v -4.7789 c 0.37488,-0.46842 0.37488,-1.1246 0.37488,-1.7805 -0.18744,-0.56232 -0.18744,-1.2182 -0.37488,-1.7805 l 0.37488,-0.74941 0.37488,-0.0939 1.4992,-0.46842 4.5918,-0.37488 2.1554,0.0935 h 0.18744 v 0.0939 h 0.18744 0.84331 l 0.74941,0.18744 0.0939,0.0935 0.56232,0.0939 h 0.09354 l 2.7174,0.65586 c 0.37488,0.0935 0.56232,0.28099 0.9372,0.46843 l 0.9372,0.46878 0.09354,0.0935 h 0.0939 l 1.7802,1.2182 z"
       class="fil19"
       style="fill:url(#id6)"
       inkscape:connector-curvature="0" />
  </g>
</svg>
